# Blender 5.0.1
# www.blender.org
mtllib monstera.mtl
o Object_4
v -0.264575 0.164014 -0.073181
v -0.264575 0.164014 -0.073181
v -0.260649 0.180632 -0.133150
v -0.258368 0.178751 -0.203026
v -0.266696 0.141557 -0.266851
v -0.224251 0.136133 -0.256957
v -0.218196 0.139806 -0.020304
v -0.178765 0.151113 -0.054684
v -0.178765 0.151113 -0.054684
v -0.312125 0.155820 -0.028730
v -0.315277 0.154917 -0.246545
v -0.166560 0.171107 -0.144409
v -0.166560 0.171107 -0.144409
v -0.182879 0.166327 -0.200816
v -0.349318 0.191441 -0.192715
v -0.357601 0.187765 -0.119766
v -0.357601 0.187765 -0.119766
v -0.267229 0.145059 -0.036590
v -0.349065 0.163930 -0.064217
v -0.349065 0.163930 -0.064217
v -0.258663 0.161406 -0.245906
v -0.216417 0.189200 -0.136346
v -0.241238 0.156641 -0.024584
v -0.220388 0.174863 -0.202226
v -0.229518 0.171935 -0.061323
v -0.229518 0.171935 -0.061323
v -0.232006 0.157686 -0.244677
v -0.304342 0.189182 -0.196503
v -0.300400 0.177644 -0.064917
v -0.300400 0.177644 -0.064917
v -0.306868 0.199118 -0.123081
v -0.293385 0.157979 -0.030083
v -0.288267 0.164222 -0.239603
v -0.260209 0.167469 -0.081962
v -0.260209 0.167469 -0.081962
v -0.261006 0.167452 -0.082129
v -0.261109 0.167018 -0.080657
v -0.260312 0.167035 -0.080490
v -0.271064 0.123268 -0.038625
v -0.271064 0.123268 -0.038625
v -0.272839 0.123455 -0.039212
v -0.273218 0.124536 -0.037723
v -0.271443 0.124349 -0.037136
v -0.288593 0.068109 -0.011676
v -0.288593 0.068109 -0.011676
v -0.290329 0.068415 -0.012323
v -0.290824 0.069127 -0.010656
v -0.289088 0.068820 -0.010010
v -0.306148 -0.000784 -0.001242
v -0.306148 -0.000784 -0.001242
v -0.310073 0.000099 -0.002767
v -0.311476 0.000784 0.001242
v -0.307551 -0.000099 0.002767
v -0.264720 0.144062 -0.054427
v -0.264720 0.144062 -0.054427
v -0.266538 0.144104 -0.054898
v -0.266842 0.145434 -0.053607
v -0.265024 0.145392 -0.053136
v -0.298490 0.033705 -0.003493
v -0.298490 0.033705 -0.003493
v -0.300788 0.034200 -0.004381
v -0.301558 0.034788 -0.002062
v -0.299260 0.034292 -0.001174
v -0.398103 0.377197 -0.087612
v -0.398103 0.377197 -0.087612
v -0.425952 0.425593 -0.211444
v -0.436194 0.413890 -0.362254
v -0.470882 0.322389 -0.486133
v -0.382249 0.303876 -0.470152
v -0.250716 0.342776 -0.012120
v -0.204592 0.395712 -0.087906
v -0.204592 0.395712 -0.087906
v -0.451330 0.312526 0.014618
v -0.565743 0.365406 -0.440478
v -0.231839 0.425191 -0.260654
v -0.231839 0.425191 -0.260654
v -0.279705 0.385282 -0.369275
v -0.624335 0.447085 -0.321972
v -0.620529 0.405327 -0.151941
v -0.620529 0.405327 -0.151941
v -0.363801 0.324641 -0.021415
v -0.556010 0.323552 -0.040221
v -0.556010 0.323552 -0.040221
v -0.446710 0.366329 -0.448487
v -0.336406 0.450579 -0.229341
v -0.309567 0.360161 -0.004500
v -0.357470 0.400716 -0.366200
v -0.322233 0.406722 -0.074618
v -0.322233 0.406722 -0.074618
v -0.391914 0.352946 -0.448722
v -0.529856 0.442740 -0.342102
v -0.470912 0.382972 -0.054970
v -0.470912 0.382972 -0.054970
v -0.522061 0.451329 -0.175448
v -0.418079 0.330785 0.005861
v -0.506596 0.380173 -0.432000
v -0.394259 0.387591 -0.106220
v -0.394259 0.387591 -0.106220
v -0.396036 0.387332 -0.106285
v -0.395107 0.385966 -0.103367
v -0.393331 0.386231 -0.103304
v -0.358755 0.279425 -0.032075
v -0.358755 0.279425 -0.032075
v -0.362946 0.278932 -0.032394
v -0.363082 0.280361 -0.029060
v -0.358898 0.280864 -0.028740
v -0.326873 0.149959 -0.000367
v -0.326873 0.149959 -0.000367
v -0.330893 0.149429 -0.000771
v -0.331124 0.149963 0.002934
v -0.327117 0.150499 0.003343
v -0.303853 0.000925 -0.003889
v -0.303853 0.000925 -0.003889
v -0.312735 -0.000061 -0.005017
v -0.313771 -0.000925 0.003889
v -0.304888 0.000061 0.005018
v -0.373206 0.330197 -0.056658
v -0.373206 0.330197 -0.056658
v -0.377336 0.329523 -0.056850
v -0.377657 0.331618 -0.053839
v -0.373533 0.332303 -0.053645
v -0.314891 0.073801 0.003820
v -0.314891 0.073801 0.003820
v -0.320083 0.073180 0.003161
v -0.320691 0.073090 0.008372
v -0.315503 0.073711 0.009031
v -0.203787 0.242824 -0.024847
v -0.203787 0.242824 -0.024847
v -0.134725 0.257304 -0.048656
v -0.051588 0.243713 -0.074422
v 0.030276 0.180670 -0.106501
v 0.040120 0.186673 -0.041913
v -0.239799 0.230336 0.068354
v -0.175207 0.254964 0.101774
v -0.175207 0.254964 0.101774
v -0.282152 0.223058 -0.067518
v -0.025293 0.186353 -0.165370
v -0.064368 0.273202 0.074076
v -0.064368 0.273202 0.074076
v -0.008652 0.251074 0.030645
v -0.111007 0.236991 -0.199081
v -0.199519 0.241657 -0.179100
v -0.199519 0.241657 -0.179100
v -0.247193 0.220323 -0.006972
v -0.258504 0.218757 -0.136665
v -0.258504 0.218757 -0.136665
v 0.004537 0.213548 -0.090414
v -0.105728 0.283746 0.006350
v -0.247999 0.247151 0.029857
v -0.031481 0.250030 -0.021437
v -0.197725 0.267805 0.024467
v -0.197725 0.267805 0.024467
v 0.017659 0.216528 -0.052479
v -0.085359 0.245498 -0.137001
v -0.233830 0.252901 -0.074172
v -0.233830 0.252901 -0.074172
v -0.171759 0.272010 -0.113450
v -0.270516 0.231786 -0.043329
v -0.020610 0.208834 -0.127931
v -0.191402 0.247731 -0.023666
v -0.191402 0.247731 -0.023666
v -0.191686 0.247411 -0.024785
v -0.193394 0.247011 -0.024195
v -0.193112 0.247330 -0.023075
v -0.245163 0.187251 -0.006497
v -0.245163 0.187251 -0.006497
v -0.245458 0.186873 -0.009207
v -0.247588 0.188524 -0.009362
v -0.247296 0.188901 -0.006650
v -0.285198 0.104909 -0.000442
v -0.285198 0.104909 -0.000442
v -0.285283 0.104765 -0.003236
v -0.287884 0.105771 -0.003231
v -0.287802 0.105913 -0.000435
v -0.305583 -0.000396 0.003174
v -0.305583 -0.000396 0.003174
v -0.305667 -0.000435 -0.003253
v -0.312041 0.000396 -0.003174
v -0.311956 0.000435 0.003253
v -0.224293 0.216969 -0.011120
v -0.224293 0.216969 -0.011120
v -0.224785 0.216364 -0.013767
v -0.226582 0.218403 -0.014026
v -0.226092 0.219007 -0.011377
v -0.300107 0.052176 0.001449
v -0.300107 0.052176 0.001449
v -0.300162 0.052122 -0.002304
v -0.303835 0.052895 -0.002262
v -0.303781 0.052949 0.001491
v -0.399316 0.188250 0.014006
v -0.399316 0.188250 0.014006
v -0.460984 0.195402 0.023658
v -0.528478 0.173584 0.038360
v -0.582609 0.120744 0.074494
v -0.588942 0.110234 0.026289
v -0.360951 0.174381 -0.054852
v -0.412860 0.193254 -0.081672
v -0.412860 0.193254 -0.081672
v -0.334186 0.170952 0.049859
v -0.543703 0.144931 0.115563
v -0.510803 0.191858 -0.070034
v -0.510803 0.191858 -0.070034
v -0.557677 0.159496 -0.039410
v -0.484423 0.196538 0.134387
v -0.410421 0.196805 0.128515
v -0.410421 0.196805 0.128515
v -0.359973 0.169008 0.003133
v -0.357725 0.172377 0.102012
v -0.357725 0.172377 0.102012
v -0.567587 0.144583 0.055601
v -0.482689 0.207762 -0.020059
v -0.356414 0.187658 -0.025368
v -0.542838 0.166096 -0.001637
v -0.400261 0.204900 -0.022928
v -0.400261 0.204900 -0.022928
v -0.576695 0.136975 0.027487
v -0.504694 0.190646 0.084509
v -0.376746 0.197511 0.052631
v -0.376746 0.197511 0.052631
v -0.433460 0.214887 0.073899
v -0.342703 0.177594 0.031184
v -0.549270 0.152575 0.083636
v -0.410028 0.191615 0.011980
v -0.410028 0.191615 0.011980
v -0.409880 0.191442 0.012820
v -0.408338 0.191163 0.012555
v -0.408485 0.191336 0.011713
v -0.361147 0.144015 0.003070
v -0.361147 0.144015 0.003070
v -0.361102 0.143862 0.005168
v -0.359337 0.144975 0.005276
v -0.359380 0.145131 0.003177
v -0.327096 0.079463 -0.001075
v -0.327096 0.079463 -0.001075
v -0.327124 0.079378 0.001051
v -0.325139 0.080141 0.001107
v -0.325112 0.080227 -0.001018
v -0.311163 -0.000334 -0.002497
v -0.311163 -0.000334 -0.002497
v -0.311288 -0.000319 0.002375
v -0.306460 0.000334 0.002497
v -0.306335 0.000319 -0.002375
v -0.379995 0.167915 0.005704
v -0.379995 0.167915 0.005704
v -0.379787 0.167589 0.007726
v -0.378295 0.169067 0.007951
v -0.378501 0.169394 0.005927
v -0.315539 0.039514 -0.001717
v -0.315539 0.039514 -0.001717
v -0.315608 0.039499 0.001128
v -0.312827 0.040098 0.001199
v -0.312758 0.040113 -0.001647
v -0.278047 0.142114 0.055009
v -0.278047 0.142114 0.055009
v -0.255597 0.155951 0.100297
v -0.232503 0.154423 0.154332
v -0.211749 0.121956 0.203516
v -0.247336 0.127975 0.211257
v -0.336156 0.134324 0.033297
v -0.349882 0.152715 0.071990
v -0.349882 0.152715 0.071990
v -0.261360 0.124340 0.005551
v -0.180817 0.121077 0.169944
v -0.321972 0.171036 0.142418
v -0.321972 0.171036 0.142418
v -0.290871 0.162769 0.180052
v -0.167359 0.142639 0.113713
v -0.188440 0.138264 0.055801
v -0.188440 0.138264 0.055801
v -0.293521 0.126516 0.028141
v -0.219953 0.121610 0.018894
v -0.219953 0.121610 0.018894
v -0.220705 0.140047 0.188473
v -0.284651 0.173557 0.117241
v -0.314136 0.142242 0.026919
v -0.261230 0.160521 0.167280
v -0.306007 0.157095 0.057400
v -0.306007 0.157095 0.057400
v -0.241329 0.143534 0.197150
v -0.199151 0.151709 0.132414
v -0.251979 0.144452 0.034981
v -0.251979 0.144452 0.034981
v -0.221551 0.159688 0.074821
v -0.273998 0.130615 0.012871
v -0.200856 0.135178 0.173141
v -0.277284 0.145883 0.062857
v -0.277284 0.145883 0.062857
v -0.276650 0.145674 0.062708
v -0.277202 0.145312 0.061597
v -0.277837 0.145521 0.061745
v -0.294856 0.108035 0.030470
v -0.294856 0.108035 0.030470
v -0.293314 0.107749 0.030282
v -0.293335 0.108539 0.028915
v -0.294876 0.108825 0.029103
v -0.304119 0.059616 0.009275
v -0.304119 0.059616 0.009275
v -0.302557 0.059436 0.009134
v -0.302640 0.059901 0.007627
v -0.304202 0.060081 0.007769
v -0.310473 0.000005 0.001944
v -0.310473 0.000005 0.001944
v -0.306877 -0.000249 0.001654
v -0.307150 -0.000005 -0.001944
v -0.310746 0.000249 -0.001654
v -0.289140 0.126178 0.042653
v -0.289140 0.126178 0.042653
v -0.287641 0.125766 0.042376
v -0.287589 0.126773 0.041161
v -0.289088 0.127185 0.041438
v -0.307542 0.029597 0.002964
v -0.307542 0.029597 0.002964
v -0.305443 0.029431 0.002793
v -0.305589 0.029736 0.000708
v -0.307688 0.029902 0.000879
v -0.342629 0.272184 0.089927
v -0.342629 0.272184 0.089927
v -0.358823 0.294247 0.166811
v -0.377585 0.286298 0.259745
v -0.366311 0.231089 0.359497
v -0.435764 0.229449 0.353046
v -0.421733 0.240216 0.025262
v -0.475583 0.270039 0.083975
v -0.475583 0.270039 0.083975
v -0.270194 0.248136 0.017717
v -0.292215 0.239528 0.316067
v -0.500677 0.301919 0.206870
v -0.500677 0.301919 0.206870
v -0.490480 0.285487 0.277501
v -0.224211 0.292695 0.230441
v -0.195669 0.291363 0.133673
v -0.195669 0.291363 0.133673
v -0.341110 0.240993 0.040234
v -0.207158 0.256894 0.062734
v -0.207158 0.256894 0.062734
v -0.379796 0.260733 0.324802
v -0.424491 0.317578 0.179633
v -0.381814 0.262747 0.024676
v -0.437525 0.287715 0.266634
v -0.393840 0.292279 0.079486
v -0.393840 0.292279 0.079486
v -0.422421 0.259946 0.328620
v -0.303005 0.293844 0.240204
v -0.283467 0.286628 0.069210
v -0.283467 0.286628 0.069210
v -0.279410 0.315877 0.142506
v -0.298953 0.255350 0.023000
v -0.334304 0.258412 0.308766
v -0.351152 0.278209 0.102229
v -0.351152 0.278209 0.102229
v -0.349990 0.277989 0.102272
v -0.349669 0.277362 0.100339
v -0.350834 0.277581 0.100295
v -0.338443 0.206376 0.046462
v -0.338443 0.206376 0.046462
v -0.335574 0.206372 0.046972
v -0.335003 0.207830 0.044440
v -0.337880 0.207829 0.043925
v -0.326009 0.112591 0.010522
v -0.326009 0.112591 0.010522
v -0.323101 0.112827 0.011150
v -0.322552 0.113600 0.008321
v -0.325460 0.113364 0.007692
v -0.312857 -0.000525 0.002592
v -0.312857 -0.000525 0.002592
v -0.306239 0.000316 0.004079
v -0.304766 0.000525 -0.002592
v -0.311385 -0.000316 -0.004079
v -0.344202 0.241088 0.067237
v -0.344202 0.241088 0.067237
v -0.341407 0.240783 0.067528
v -0.340721 0.242753 0.065364
v -0.343522 0.243055 0.065069
v -0.318297 0.055443 0.001685
v -0.318297 0.055443 0.001685
v -0.314427 0.055901 0.002552
v -0.313608 0.056330 -0.001332
v -0.317478 0.055872 -0.002199
v -0.301537 0.396614 0.091860
v -0.301537 0.396614 0.091860
v -0.280001 0.457174 0.213139
v -0.259604 0.481866 0.363730
v -0.234848 0.424421 0.514951
v -0.331061 0.430995 0.508102
v -0.430601 0.348803 0.003150
v -0.496360 0.406430 0.082126
v -0.496360 0.406430 0.082126
v -0.220906 0.337392 -0.012298
v -0.133313 0.419502 0.451971
v -0.479765 0.490058 0.267605
v -0.479765 0.490058 0.267605
v -0.426228 0.493768 0.385672
v -0.064720 0.457630 0.310679
v -0.076029 0.416948 0.154464
v -0.076029 0.416948 0.154464
v -0.318097 0.340984 0.021897
v -0.125613 0.349366 0.049425
v -0.125613 0.349366 0.049425
v -0.250778 0.462083 0.463225
v -0.368822 0.499255 0.228185
v -0.372523 0.374026 -0.001937
v -0.342254 0.492947 0.374334
v -0.376797 0.426685 0.072552
v -0.376797 0.426685 0.072552
v -0.309484 0.467513 0.469706
v -0.159774 0.477550 0.332244
v -0.222456 0.403574 0.057970
v -0.222456 0.403574 0.057970
v -0.177348 0.468284 0.170262
v -0.259200 0.352124 -0.005240
v -0.189037 0.450271 0.440283
v -0.305968 0.409585 0.110189
v -0.305968 0.409585 0.110189
v -0.304223 0.409204 0.110332
v -0.304750 0.407660 0.107365
v -0.306495 0.408041 0.107222
v -0.319008 0.293965 0.035344
v -0.319008 0.293965 0.035344
v -0.314938 0.293674 0.036019
v -0.314204 0.295167 0.032233
v -0.318273 0.295459 0.031559
v -0.316701 0.158295 -0.001268
v -0.316701 0.158295 -0.001268
v -0.312636 0.158299 -0.000512
v -0.311887 0.158885 -0.004536
v -0.315953 0.158881 -0.005293
v -0.314355 0.000211 0.003753
v -0.314355 0.000211 0.003753
v -0.305058 0.000647 0.005509
v -0.303268 -0.000211 -0.003753
v -0.312566 -0.000647 -0.005509
v -0.317212 0.347193 0.061112
v -0.317212 0.347193 0.061112
v -0.313159 0.346528 0.061596
v -0.312397 0.348663 0.058137
v -0.316450 0.349327 0.057654
v -0.314239 0.077599 -0.005416
v -0.314239 0.077599 -0.005416
v -0.308807 0.077807 -0.004387
v -0.307776 0.077735 -0.009822
v -0.313207 0.077527 -0.010850
vn -0.0862 0.9670 -0.2396
vn 0.0573 0.9551 -0.2907
vn -0.0172 0.8244 -0.5657
vn -0.0638 0.7998 -0.5969
vn 0.3192 0.9474 0.0245
vn 0.1110 0.9926 0.0494
vn 0.0263 0.9346 0.3547
vn 0.3438 0.8627 0.3708
vn 0.2782 0.6799 -0.6785
vn 0.2450 0.7718 -0.5868
vn 0.1855 0.9262 -0.3282
vn 0.3127 0.8896 -0.3328
vn 0.0125 0.9160 0.4010
vn 0.0647 0.9446 0.3217
vn 0.1078 0.9092 0.4021
vn 0.1550 0.8768 0.4552
vn 0.3192 0.9474 0.0244
vn -0.1625 0.9688 0.1870
vn 0.0890 0.9849 0.1484
vn -0.2036 0.8877 0.4130
vn -0.1625 0.9688 0.1871
vn 0.3438 0.8627 0.3709
vn 0.0262 0.9346 0.3547
vn -0.0309 0.8867 0.4613
vn 0.3233 0.7862 0.5266
vn 0.1003 0.9922 0.0747
vn 0.0909 0.8029 -0.5892
vn 0.1041 0.9584 -0.2658
vn 0.0560 0.6864 -0.7251
vn -0.2036 0.8876 0.4131
vn -0.1900 0.8667 0.4611
vn 0.8088 0.3879 0.4420
vn -0.8922 0.4245 0.1546
vn -0.7537 0.5582 0.3469
vn 0.5747 0.4891 0.6561
vn -0.1198 -0.7407 -0.6610
vn 0.3870 -0.7334 -0.5588
vn 0.8206 -0.4911 -0.2924
vn -0.5932 -0.4564 -0.6632
vn 0.8346 -0.4535 -0.3126
vn -0.5346 -0.3161 -0.7838
vn 0.8576 -0.3819 -0.3444
vn -0.4897 -0.1528 -0.8584
vn -0.8448 0.3277 0.4229
vn -0.8150 0.4075 0.4119
vn -0.4433 0.0048 -0.8963
vn 0.5098 0.3313 0.7939
vn -0.7925 0.4793 0.3772
vn 0.4563 0.1804 0.8714
vn 0.4177 0.0546 0.9069
vn -0.8663 0.2922 0.4053
vn 0.4231 0.0019 0.9061
vn 0.8814 -0.2804 -0.3802
vn 0.8838 -0.2231 -0.4112
vn -0.4049 0.0669 -0.9119
vn 0.3871 -0.7334 -0.5588
vn 0.8205 -0.4912 -0.2924
vn 0.8346 -0.4536 -0.3126
vn 0.8576 -0.3820 -0.3445
vn 0.8813 -0.2804 -0.3802
vn 0.8838 -0.2231 -0.4113
vn -0.1659 0.9733 -0.1587
vn 0.0171 0.9556 -0.2942
vn -0.0104 0.7702 -0.6377
vn -0.0849 0.7580 -0.6467
vn 0.1720 0.9800 -0.1001
vn -0.0046 1.0000 -0.0024
vn -0.1000 0.8784 0.4673
vn 0.2004 0.9105 0.3617
vn 0.2451 0.5748 -0.7807
vn 0.2281 0.6765 -0.7003
vn 0.1302 0.8755 -0.4654
vn 0.1980 0.8437 -0.4990
vn -0.1185 0.7888 0.6031
vn -0.0150 0.8873 0.4610
vn -0.0111 0.8175 0.5758
vn 0.0451 0.7838 0.6194
vn 0.1720 0.9800 -0.1002
vn -0.2555 0.8786 0.4034
vn -0.0028 0.9625 0.2713
vn -0.2853 0.6963 0.6586
vn -0.2555 0.8786 0.4035
vn -0.1000 0.8784 0.4674
vn -0.1156 0.7618 0.6374
vn 0.1960 0.7887 0.5828
vn 0.0541 0.9932 0.1031
vn 0.1102 0.7213 -0.6838
vn 0.1052 0.9306 -0.3507
vn 0.0675 0.5956 -0.8004
vn -0.2743 0.6362 0.7212
vn 0.7667 0.5651 0.3048
vn -0.8914 0.1105 0.4396
vn -0.7194 0.2385 0.6524
vn 0.5907 0.5665 0.5746
vn -0.1490 -0.6696 -0.7277
vn 0.3396 -0.5405 -0.7698
vn 0.7694 -0.1545 -0.6197
vn -0.6545 -0.5447 -0.5243
vn 0.7622 -0.0265 -0.6468
vn -0.6505 -0.4082 -0.6405
vn 0.7806 0.0632 -0.6219
vn -0.6376 -0.2302 -0.7352
vn -0.7594 -0.0835 0.6452
vn -0.7297 -0.0266 0.6832
vn -0.6345 -0.0517 -0.7712
vn 0.6100 0.3985 0.6849
vn -0.7179 0.0687 0.6927
vn 0.6194 0.2364 0.7487
vn 0.6027 0.0957 0.7922
vn -0.7814 -0.1104 0.6142
vn 0.6127 0.0456 0.7890
vn 0.7891 0.1361 -0.5991
vn 0.7725 0.1811 -0.6086
vn -0.6206 0.0254 -0.7837
vn 0.3397 -0.5404 -0.7698
vn 0.7694 -0.1546 -0.6198
vn 0.7621 -0.0265 -0.6469
vn 0.7805 0.0632 -0.6219
vn 0.7890 0.1360 -0.5991
vn 0.2615 0.8953 -0.3605
vn 0.3415 0.9040 -0.2572
vn 0.5264 0.7539 -0.3931
vn 0.5527 0.7187 -0.4219
vn 0.1346 0.9901 0.0394
vn 0.0273 0.9913 -0.1286
vn -0.3368 0.9401 -0.0531
vn -0.2304 0.9389 0.2558
vn 0.7135 0.6781 -0.1764
vn 0.6252 0.7568 -0.1907
vn 0.4021 0.8921 -0.2059
vn 0.4615 0.8800 -0.1122
vn -0.3955 0.9180 -0.0293
vn -0.2908 0.9561 -0.0361
vn -0.3617 0.9309 0.0505
vn -0.4008 0.9066 0.1321
vn 0.1347 0.9901 0.0394
vn -0.2003 0.9348 -0.2934
vn -0.0862 0.9923 -0.0895
vn -0.4846 0.8457 -0.2234
vn -0.3617 0.9309 0.0504
vn -0.2004 0.9348 -0.2934
vn -0.3369 0.9400 -0.0531
vn -0.4761 0.8768 -0.0668
vn -0.4146 0.8490 0.3274
vn 0.0030 0.9923 -0.1239
vn 0.5736 0.7583 -0.3099
vn 0.3257 0.9157 -0.2355
vn 0.6698 0.6497 -0.3596
vn -0.4846 0.8457 -0.2233
vn -0.5347 0.8248 -0.1839
vn -0.1605 0.5351 0.8294
vn -0.4879 0.2637 -0.8321
vn -0.6275 0.3935 -0.6718
vn -0.4502 0.5959 0.6650
vn 0.6185 -0.7455 -0.2483
vn 0.7075 -0.6191 0.3408
vn 0.5819 -0.3208 0.7473
vn 0.4629 -0.5528 -0.6929
vn 0.6148 -0.2833 0.7361
vn 0.5734 -0.4123 -0.7079
vn 0.6542 -0.2092 0.7268
vn 0.6323 -0.2732 -0.7249
vn -0.7150 0.1625 -0.6799
vn -0.6933 0.2403 -0.6794
vn 0.6700 -0.1281 -0.7312
vn -0.5875 0.4304 0.6852
vn -0.6595 0.3059 -0.6867
vn -0.6550 0.2954 0.6955
vn -0.6915 0.1812 0.6993
vn -0.7050 0.1224 -0.6985
vn -0.6868 0.1310 0.7150
vn 0.6873 -0.1065 0.7185
vn 0.7149 -0.0516 0.6974
vn 0.6964 -0.0602 -0.7151
vn 0.7075 -0.6191 0.3409
vn 0.5819 -0.3209 0.7473
vn 0.6148 -0.2834 0.7360
vn 0.6543 -0.2092 0.7268
vn 0.6874 -0.1066 0.7185
vn 0.7149 -0.0516 0.6973
vn -0.3345 0.9213 0.1985
vn -0.4615 0.8845 0.0687
vn -0.6650 0.7203 0.1972
vn -0.6750 0.6973 0.2412
vn -0.3418 0.9370 -0.0722
vn -0.2153 0.9752 0.0509
vn 0.2504 0.9669 0.0485
vn 0.1486 0.9491 -0.2776
vn -0.8334 0.5516 0.0329
vn -0.7669 0.6412 0.0270
vn -0.5992 0.7973 0.0725
vn -0.6453 0.7633 0.0318
vn 0.3886 0.9213 0.0116
vn 0.2347 0.9720 -0.0093
vn 0.3600 0.9288 -0.0876
vn 0.4255 0.8955 -0.1303
vn -0.3419 0.9370 -0.0722
vn 0.1821 0.9639 0.1944
vn 0.0257 0.9991 -0.0344
vn 0.4642 0.8656 0.1880
vn 0.3600 0.9288 -0.0875
vn 0.1822 0.9639 0.1944
vn 0.1487 0.9491 -0.2777
vn 0.2505 0.9669 0.0485
vn 0.4457 0.8927 0.0660
vn 0.4046 0.8564 -0.3206
vn -0.1474 0.9889 0.0193
vn 0.2347 0.9720 -0.0094
vn -0.7205 0.6842 0.1126
vn -0.5055 0.8607 0.0602
vn -0.7912 0.5855 0.1765
vn 0.4642 0.8655 0.1880
vn 0.5295 0.8304 0.1734
vn 0.2172 0.5187 -0.8269
vn 0.3729 0.3207 0.8707
vn 0.5441 0.4485 0.7091
vn 0.4738 0.6073 -0.6378
vn -0.5841 -0.7821 0.2171
vn -0.6223 -0.6935 -0.3631
vn -0.5080 -0.3762 -0.7749
vn -0.4652 -0.5603 0.6853
vn -0.5761 -0.3078 -0.7572
vn -0.5753 -0.4340 0.6933
vn -0.6198 -0.2199 -0.7533
vn -0.6509 -0.2833 0.7043
vn 0.6875 0.1720 0.7055
vn 0.6684 0.2555 0.6985
vn -0.6971 -0.1249 0.7061
vn 0.6018 0.4492 -0.6603
vn 0.6168 0.3393 0.7102
vn 0.6751 0.3050 -0.6718
vn 0.7172 0.1784 -0.6737
vn 0.6770 0.1321 0.7241
vn 0.7131 0.1278 -0.6893
vn -0.6583 -0.1165 -0.7437
vn -0.6871 -0.0614 -0.7240
vn -0.7232 -0.0570 0.6883
vn -0.6224 -0.6934 -0.3631
vn -0.5081 -0.3762 -0.7748
vn -0.5762 -0.3078 -0.7572
vn -0.6199 -0.2199 -0.7532
vn -0.6584 -0.1165 -0.7436
vn -0.6871 -0.0613 -0.7239
vn 0.4333 0.8986 0.0693
vn 0.3282 0.9281 0.1761
vn 0.4757 0.7788 0.4088
vn 0.5228 0.7414 0.4206
vn -0.0352 0.9994 0.0003
vn 0.1459 0.9828 -0.1134
vn 0.0729 0.9058 -0.4175
vn -0.2273 0.9288 -0.2927
vn 0.2306 0.7247 0.6494
vn 0.2443 0.8039 0.5422
vn 0.2258 0.9371 0.2662
vn 0.1082 0.9388 0.3271
vn 0.0600 0.8844 -0.4629
vn 0.0565 0.9261 -0.3730
vn -0.0245 0.9054 -0.4238
vn -0.0967 0.8885 -0.4485
vn -0.0352 0.9994 0.0004
vn 0.3169 0.8824 -0.3479
vn 0.1204 0.9700 -0.2110
vn 0.2341 0.7950 -0.5597
vn -0.0245 0.9055 -0.4237
vn 0.3169 0.8823 -0.3479
vn 0.0729 0.9057 -0.4175
vn 0.0639 0.8444 -0.5319
vn -0.2967 0.8512 -0.4330
vn 0.1442 0.9795 -0.1406
vn 0.3867 0.7892 0.4771
vn 0.2779 0.9450 0.1725
vn 0.4442 0.6663 0.5990
vn 0.2340 0.7950 -0.5597
vn 0.1962 0.7793 -0.5951
vn -0.7853 0.6092 -0.1102
vn 0.8169 0.1502 -0.5569
vn 0.6503 0.3201 -0.6890
vn -0.6480 0.6406 -0.4120
vn 0.1906 -0.7501 0.6333
vn -0.2892 -0.5957 0.7493
vn -0.7136 -0.2360 0.6596
vn 0.6757 -0.6147 0.4069
vn -0.7072 -0.1961 0.6793
vn 0.7139 -0.4646 0.5239
vn -0.6944 -0.1213 0.7093
vn 0.7504 -0.2960 0.5910
vn 0.6351 0.0738 -0.7689
vn 0.6352 0.1588 -0.7559
vn 0.7683 -0.1321 0.6262
vn -0.6928 0.4721 -0.5451
vn 0.6499 0.2336 -0.7232
vn -0.7198 0.3129 -0.6197
vn -0.7350 0.1817 -0.6533
vn 0.6523 0.0334 -0.7573
vn -0.7533 0.1328 -0.6442
vn -0.6727 -0.0176 0.7397
vn -0.6463 0.0377 0.7622
vn 0.7586 -0.0615 0.6486
vn -0.7136 -0.2361 0.6596
vn -0.7071 -0.1962 0.6793
vn -0.6943 -0.1213 0.7094
vn -0.6462 0.0377 0.7622
vn 0.1668 0.9446 0.2826
vn 0.0457 0.9438 0.3274
vn 0.1672 0.8348 0.5245
vn 0.1789 0.8040 0.5671
vn -0.1442 0.9876 0.0614
vn 0.0184 0.9997 -0.0168
vn 0.0665 0.9192 -0.3881
vn -0.2915 0.8664 -0.4054
vn -0.0641 0.7550 0.6526
vn -0.0418 0.8228 0.5667
vn 0.0151 0.9284 0.3712
vn -0.0778 0.9087 0.4102
vn 0.0177 0.8787 -0.4771
vn 0.0062 0.9303 -0.3669
vn -0.0447 0.8855 -0.4625
vn -0.1018 0.8431 -0.5281
vn -0.1442 0.9876 0.0615
vn 0.2301 0.9555 -0.1846
vn -0.0081 0.9908 -0.1350
vn 0.2449 0.8519 -0.4630
vn 0.2301 0.9555 -0.1847
vn -0.2915 0.8664 -0.4055
vn 0.0665 0.9192 -0.3882
vn 0.0960 0.8439 -0.5279
vn -0.3038 0.7605 -0.5739
vn 0.0421 0.9988 -0.0268
vn 0.0062 0.9303 -0.3668
vn 0.0825 0.8351 0.5439
vn 0.0781 0.9466 0.3129
vn 0.1169 0.7523 0.6483
vn 0.2449 0.8518 -0.4630
vn 0.2228 0.8075 -0.5462
vn -0.7976 0.3414 -0.4972
vn 0.8901 0.4155 -0.1873
vn 0.7871 0.4660 -0.4042
vn -0.5407 0.4654 -0.7007
vn 0.1064 -0.6647 0.7395
vn -0.4881 -0.6459 0.5870
vn -0.8357 -0.4224 0.3509
vn 0.5903 -0.3993 0.7015
vn -0.8335 -0.3362 0.4384
vn 0.5823 -0.2829 0.7621
vn -0.8433 -0.2394 0.4812
vn 0.5759 -0.1317 0.8069
vn 0.8124 0.1801 -0.5545
vn 0.7959 0.2636 -0.5451
vn 0.5559 0.0331 0.8306
vn -0.5431 0.3051 -0.7822
vn 0.8008 0.3509 -0.4853
vn -0.5411 0.1541 -0.8267
vn -0.5255 0.0214 -0.8505
vn 0.8321 0.1440 -0.5356
vn -0.5368 -0.0300 -0.8431
vn -0.8488 -0.1329 0.5117
vn -0.8408 -0.0731 0.5365
vn 0.5274 0.1009 0.8436
vn -0.4882 -0.6458 0.5870
vn -0.8357 -0.4225 0.3510
vn -0.8334 -0.3363 0.4385
vn -0.8432 -0.2394 0.4813
vn -0.8407 -0.0730 0.5365
vn 0.3215 0.9468 0.0166
vn 0.1894 0.9781 0.0866
vn 0.2812 0.8849 0.3714
vn 0.3263 0.8560 0.4011
vn -0.1181 0.9757 -0.1844
vn 0.0876 0.9657 -0.2443
vn 0.1057 0.8360 -0.5385
vn -0.2179 0.8387 -0.4991
vn -0.0141 0.8361 0.5485
vn 0.0212 0.8997 0.4359
vn 0.0662 0.9872 0.1451
vn -0.0631 0.9829 0.1733
vn 0.1073 0.8067 -0.5812
vn 0.0762 0.8604 -0.5039
vn 0.0139 0.8223 -0.5689
vn -0.0474 0.7929 -0.6075
vn -0.1181 0.9757 -0.1843
vn 0.3231 0.8544 -0.4069
vn 0.0904 0.9356 -0.3414
vn 0.3078 0.7269 -0.6140
vn 0.0139 0.8223 -0.5688
vn 0.3231 0.8544 -0.4070
vn 0.1329 0.7578 -0.6389
vn -0.2402 0.7330 -0.6364
vn 0.0936 0.9583 -0.2700
vn 0.0762 0.8604 -0.5038
vn 0.1765 0.8938 0.4123
vn 0.1407 0.9877 0.0676
vn 0.2094 0.7986 0.5643
vn 0.3078 0.7268 -0.6140
vn 0.2823 0.7015 -0.6544
vn -0.7754 0.4811 -0.4090
vn 0.9207 0.1691 -0.3518
vn 0.7819 0.2951 -0.5491
vn -0.5653 0.4848 -0.6674
vn 0.0762 -0.6179 0.7826
vn -0.4284 -0.5105 0.7456
vn -0.8419 -0.2250 0.4904
vn 0.5910 -0.4566 0.6650
vn -0.8444 -0.1822 0.5038
vn 0.5837 -0.2873 0.7595
vn -0.8465 -0.1027 0.5224
vn 0.5865 -0.1074 0.8028
vn 0.8098 0.0398 -0.5854
vn 0.7989 0.1250 -0.5883
vn 0.5804 0.0609 0.8121
vn -0.5584 0.2942 -0.7757
vn 0.7981 0.2051 -0.5666
vn -0.5507 0.1236 -0.8255
vn -0.5453 -0.0120 -0.8381
vn 0.8262 0.0040 -0.5634
vn -0.5614 -0.0610 -0.8253
vn -0.8426 0.0063 0.5385
vn -0.8279 0.0671 0.5568
vn 0.5589 0.1321 0.8187
vn -0.8419 -0.2251 0.4905
vn -0.8443 -0.1822 0.5039
vn -0.8464 -0.1027 0.5225
vn -0.8425 0.0063 0.5386
vn -0.8279 0.0672 0.5569
vt 0.523114 0.942698
vt 0.487918 0.845203
vt 0.333589 0.821154
vt 0.290264 0.868034
vt 0.616351 0.516281
vt 0.645059 0.629022
vt 0.856167 0.629656
vt 0.869335 0.502916
vt 0.209596 0.688955
vt 0.297183 0.696911
vt 0.440135 0.659055
vt 0.428683 0.574329
vt 0.961892 0.705730
vt 0.847346 0.714554
vt 0.871977 0.789947
vt 0.977485 0.760275
vt 0.616351 0.516281
vt 0.742073 0.939147
vt 0.703783 0.826587
vt 0.907943 0.900033
vt 0.871977 0.789947
vt 0.742073 0.939146
vt 0.871999 0.503422
vt 0.857235 0.629859
vt 0.974335 0.641516
vt 0.986511 0.578680
vt 0.670311 0.728191
vt 0.304403 0.757026
vt 0.451754 0.745027
vt 0.203680 0.765228
vt 0.907943 0.900033
vt 0.989283 0.801543
vt 0.062271 0.019285
vt 0.058160 0.019377
vt 0.059420 0.199968
vt 0.068716 0.199846
vt 0.055368 0.019492
vt 0.051513 0.019345
vt 0.040938 0.199824
vt 0.050169 0.199946
vt 0.042647 0.330307
vt 0.051484 0.330229
vt 0.044725 0.634216
vt 0.053559 0.634255
vt 0.063653 0.811535
vt 0.062432 0.634414
vt 0.051406 0.811400
vt 0.069285 0.329903
vt 0.060072 0.329993
vt 0.071536 0.634314
vt 0.075837 0.811231
vt 0.064169 0.983559
vt 0.085381 0.982994
vt 0.039496 0.810882
vt 0.023775 0.981674
vt 0.043942 0.983087
vt 0.064924 0.018929
vt 0.078036 0.199605
vt 0.078225 0.330027
vt 0.080627 0.633936
vt 0.088148 0.810526
vt 0.106190 0.981329
s 1
usemtl Monstera_Mat
f 15/1/1 28/2/2 33/3/3
f 15/1/1 33/3/3 11/4/4
f 13/5/5 22/6/6 26/7/7
f 13/5/5 26/7/7 8/8/8
f 6/9/9 27/10/10 24/11/11
f 6/9/9 24/11/11 14/12/12
f 18/13/13 2/14/14 30/15/15
f 18/13/13 30/15/15 32/16/16
f 14/12/12 24/11/11 22/6/6
f 14/12/12 22/6/6 12/17/17
f 17/18/18 31/19/19 28/2/2
f 17/18/18 28/2/2 15/1/1
f 20/20/20 29/21/15 31/19/19
f 20/20/20 31/19/19 16/22/21
f 9/23/22 25/24/23 23/25/24
f 9/23/22 23/25/24 7/26/25
f 26/7/7 22/6/6 3/27/26
f 26/7/7 3/27/26 1/14/14
f 24/11/11 27/10/10 21/28/27
f 24/11/11 21/28/27 4/29/28
f 21/28/27 27/10/10 6/9/9
f 21/28/27 6/9/9 5/30/29
f 23/25/24 25/24/23 2/14/14
f 23/25/24 2/14/14 18/13/13
f 22/6/6 24/11/11 4/29/28
f 22/6/6 4/29/28 3/27/26
f 28/2/2 31/19/19 3/27/26
f 28/2/2 3/27/26 4/29/28
f 31/19/19 29/21/15 1/14/14
f 31/19/19 1/14/14 3/27/26
f 32/16/16 30/15/15 19/31/30
f 32/16/16 19/31/30 10/32/31
f 11/4/4 33/3/3 21/28/27
f 11/4/4 21/28/27 5/30/29
f 21/28/27 33/3/3 28/2/2
f 21/28/27 28/2/2 4/29/28
f 38/33/32 37/34/33 57/35/34
f 38/33/32 57/35/34 58/36/35
f 36/37/36 34/38/37 55/39/38
f 36/37/36 55/39/38 56/40/39
f 56/40/39 55/39/38 39/41/40
f 56/40/39 39/41/40 41/42/41
f 41/42/41 39/41/40 45/43/42
f 41/42/41 45/43/42 46/44/43
f 62/45/44 47/46/45 46/44/43
f 62/45/44 46/44/43 61/47/46
f 43/48/47 42/49/48 47/46/45
f 43/48/47 47/46/45 48/50/49
f 48/50/49 47/46/45 62/45/44
f 48/50/49 62/45/44 63/51/50
f 37/34/33 36/37/36 56/40/39
f 37/34/33 56/40/39 57/35/34
f 42/49/48 41/42/41 46/44/43
f 42/49/48 46/44/43 47/46/45
f 63/51/50 62/45/44 52/52/51
f 63/51/50 52/52/51 53/53/52
f 61/47/46 60/54/53 50/55/54
f 61/47/46 50/55/54 51/56/55
f 46/44/43 45/43/42 60/54/53
f 46/44/43 60/54/53 61/47/46
f 35/57/56 38/33/32 58/36/35
f 35/57/56 58/36/35 54/58/57
f 40/59/58 43/48/47 48/50/49
f 40/59/58 48/50/49 44/60/59
f 58/36/35 57/35/34 42/49/48
f 58/36/35 42/49/48 43/48/47
f 54/58/57 58/36/35 43/48/47
f 54/58/57 43/48/47 40/59/58
f 59/61/60 63/51/50 53/53/52
f 59/61/60 53/53/52 49/62/61
f 61/47/46 51/56/55 52/52/51
f 61/47/46 52/52/51 62/45/44
f 44/60/59 48/50/49 63/51/50
f 44/60/59 63/51/50 59/61/60
f 41/42/41 42/49/48 57/35/34
f 41/42/41 57/35/34 56/40/39
f 78/1/62 91/2/63 96/3/64
f 78/1/62 96/3/64 74/4/65
f 76/5/66 85/6/67 88/7/68
f 76/5/66 88/7/68 71/8/69
f 69/9/70 90/10/71 87/11/72
f 69/9/70 87/11/72 77/12/73
f 81/13/74 65/14/75 93/15/76
f 81/13/74 93/15/76 95/16/77
f 77/12/73 87/11/72 85/6/67
f 77/12/73 85/6/67 75/17/78
f 79/18/79 94/19/80 91/2/63
f 79/18/79 91/2/63 78/1/62
f 82/20/81 92/21/76 94/19/80
f 82/20/81 94/19/80 80/22/82
f 72/23/69 89/24/83 86/25/84
f 72/23/69 86/25/84 70/26/85
f 88/7/68 85/6/67 66/27/86
f 88/7/68 66/27/86 64/14/75
f 87/11/72 90/10/71 84/28/87
f 87/11/72 84/28/87 67/29/88
f 84/28/87 90/10/71 69/9/70
f 84/28/87 69/9/70 68/30/89
f 86/25/84 89/24/83 65/14/75
f 86/25/84 65/14/75 81/13/74
f 85/6/67 87/11/72 67/29/88
f 85/6/67 67/29/88 66/27/86
f 91/2/63 94/19/80 66/27/86
f 91/2/63 66/27/86 67/29/88
f 94/19/80 92/21/76 64/14/75
f 94/19/80 64/14/75 66/27/86
f 95/16/77 93/15/76 83/31/81
f 95/16/77 83/31/81 73/32/90
f 74/4/65 96/3/64 84/28/87
f 74/4/65 84/28/87 68/30/89
f 84/28/87 96/3/64 91/2/63
f 84/28/87 91/2/63 67/29/88
f 101/33/91 100/34/92 120/35/93
f 101/33/91 120/35/93 121/36/94
f 99/37/95 97/38/96 117/39/97
f 99/37/95 117/39/97 119/40/98
f 119/40/98 117/39/97 102/41/99
f 119/40/98 102/41/99 104/42/100
f 104/42/100 102/41/99 107/43/101
f 104/42/100 107/43/101 109/44/102
f 125/45/103 110/46/104 109/44/102
f 125/45/103 109/44/102 124/47/105
f 106/48/106 105/49/107 110/46/104
f 106/48/106 110/46/104 111/50/108
f 111/50/108 110/46/104 125/45/103
f 111/50/108 125/45/103 126/51/109
f 100/34/92 99/37/95 119/40/98
f 100/34/92 119/40/98 120/35/93
f 105/49/107 104/42/100 109/44/102
f 105/49/107 109/44/102 110/46/104
f 126/51/109 125/45/103 115/52/110
f 126/51/109 115/52/110 116/53/111
f 124/47/105 122/54/112 112/55/113
f 124/47/105 112/55/113 114/56/114
f 109/44/102 107/43/101 122/54/112
f 109/44/102 122/54/112 124/47/105
f 98/57/115 101/33/91 121/36/94
f 98/57/115 121/36/94 118/58/116
f 103/59/117 106/48/106 111/50/108
f 103/59/117 111/50/108 108/60/118
f 121/36/94 120/35/93 105/49/107
f 121/36/94 105/49/107 106/48/106
f 118/58/116 121/36/94 106/48/106
f 118/58/116 106/48/106 103/59/117
f 123/61/119 126/51/109 116/53/111
f 123/61/119 116/53/111 113/62/113
f 124/47/105 114/56/114 115/52/110
f 124/47/105 115/52/110 125/45/103
f 108/60/118 111/50/108 126/51/109
f 108/60/118 126/51/109 123/61/119
f 104/42/100 105/49/107 120/35/93
f 104/42/100 120/35/93 119/40/98
f 141/1/120 154/2/121 159/3/122
f 141/1/120 159/3/122 137/4/123
f 139/5/124 148/6/125 151/7/126
f 139/5/124 151/7/126 134/8/127
f 132/9/128 153/10/129 150/11/130
f 132/9/128 150/11/130 140/12/131
f 144/13/132 128/14/133 156/15/134
f 144/13/132 156/15/134 158/16/135
f 140/12/131 150/11/130 148/6/125
f 140/12/131 148/6/125 138/17/136
f 143/18/137 157/19/138 154/2/121
f 143/18/137 154/2/121 141/1/120
f 146/20/139 155/21/140 157/19/138
f 146/20/139 157/19/138 142/22/141
f 135/23/127 152/24/142 149/25/143
f 135/23/127 149/25/143 133/26/144
f 151/7/126 148/6/125 129/27/145
f 151/7/126 129/27/145 127/14/133
f 150/11/130 153/10/129 147/28/146
f 150/11/130 147/28/146 130/29/147
f 147/28/146 153/10/129 132/9/128
f 147/28/146 132/9/128 131/30/148
f 149/25/143 152/24/142 128/14/133
f 149/25/143 128/14/133 144/13/132
f 148/6/125 150/11/130 130/29/147
f 148/6/125 130/29/147 129/27/145
f 154/2/121 157/19/138 129/27/145
f 154/2/121 129/27/145 130/29/147
f 157/19/138 155/21/140 127/14/133
f 157/19/138 127/14/133 129/27/145
f 158/16/135 156/15/134 145/31/149
f 158/16/135 145/31/149 136/32/150
f 137/4/123 159/3/122 147/28/146
f 137/4/123 147/28/146 131/30/148
f 147/28/146 159/3/122 154/2/121
f 147/28/146 154/2/121 130/29/147
f 164/33/151 163/34/152 183/35/153
f 164/33/151 183/35/153 184/36/154
f 162/37/155 160/38/156 181/39/157
f 162/37/155 181/39/157 182/40/158
f 182/40/158 181/39/157 166/41/159
f 182/40/158 166/41/159 167/42/160
f 167/42/160 166/41/159 171/43/161
f 167/42/160 171/43/161 172/44/162
f 188/45/163 173/46/164 172/44/162
f 188/45/163 172/44/162 187/47/165
f 169/48/166 168/49/167 173/46/164
f 169/48/166 173/46/164 174/50/168
f 174/50/168 173/46/164 188/45/163
f 174/50/168 188/45/163 189/51/169
f 163/34/152 162/37/155 182/40/158
f 163/34/152 182/40/158 183/35/153
f 168/49/167 167/42/160 172/44/162
f 168/49/167 172/44/162 173/46/164
f 189/51/169 188/45/163 178/52/170
f 189/51/169 178/52/170 179/53/171
f 187/47/165 186/54/172 176/55/173
f 187/47/165 176/55/173 177/56/174
f 172/44/162 171/43/161 186/54/172
f 172/44/162 186/54/172 187/47/165
f 161/57/175 164/33/151 184/36/154
f 161/57/175 184/36/154 180/58/176
f 165/59/177 169/48/166 174/50/168
f 165/59/177 174/50/168 170/60/178
f 184/36/154 183/35/153 168/49/167
f 184/36/154 168/49/167 169/48/166
f 180/58/176 184/36/154 169/48/166
f 180/58/176 169/48/166 165/59/177
f 185/61/179 189/51/169 179/53/171
f 185/61/179 179/53/171 175/62/180
f 187/47/165 177/56/174 178/52/170
f 187/47/165 178/52/170 188/45/163
f 170/60/178 174/50/168 189/51/169
f 170/60/178 189/51/169 185/61/179
f 167/42/160 168/49/167 183/35/153
f 167/42/160 183/35/153 182/40/158
f 204/1/181 217/2/182 222/3/183
f 204/1/181 222/3/183 200/4/184
f 201/5/185 211/6/186 215/7/187
f 201/5/185 215/7/187 198/8/188
f 195/9/189 216/10/190 213/11/191
f 195/9/189 213/11/191 203/12/192
f 207/13/193 190/14/194 218/15/195
f 207/13/193 218/15/195 221/16/196
f 203/12/192 213/11/191 211/6/186
f 203/12/192 211/6/186 202/17/197
f 205/18/198 220/19/199 217/2/182
f 205/18/198 217/2/182 204/1/181
f 209/20/200 219/21/201 220/19/199
f 209/20/200 220/19/199 206/22/202
f 197/23/203 214/24/204 212/25/205
f 197/23/203 212/25/205 196/26/206
f 215/7/187 211/6/186 192/27/207
f 215/7/187 192/27/207 191/14/208
f 213/11/191 216/10/190 210/28/209
f 213/11/191 210/28/209 193/29/210
f 210/28/209 216/10/190 195/9/189
f 210/28/209 195/9/189 194/30/211
f 212/25/205 214/24/204 190/14/194
f 212/25/205 190/14/194 207/13/193
f 211/6/186 213/11/191 193/29/210
f 211/6/186 193/29/210 192/27/207
f 217/2/182 220/19/199 192/27/207
f 217/2/182 192/27/207 193/29/210
f 220/19/199 219/21/201 191/14/208
f 220/19/199 191/14/208 192/27/207
f 221/16/196 218/15/195 208/31/212
f 221/16/196 208/31/212 199/32/213
f 200/4/184 222/3/183 210/28/209
f 200/4/184 210/28/209 194/30/211
f 210/28/209 222/3/183 217/2/182
f 210/28/209 217/2/182 193/29/210
f 227/33/214 226/34/215 246/35/216
f 227/33/214 246/35/216 247/36/217
f 225/37/218 224/38/219 244/39/220
f 225/37/218 244/39/220 245/40/221
f 245/40/221 244/39/220 229/41/222
f 245/40/221 229/41/222 230/42/223
f 230/42/223 229/41/222 233/43/224
f 230/42/223 233/43/224 235/44/225
f 251/45/226 236/46/227 235/44/225
f 251/45/226 235/44/225 250/47/228
f 232/48/229 231/49/230 236/46/227
f 232/48/229 236/46/227 237/50/231
f 237/50/231 236/46/227 251/45/226
f 237/50/231 251/45/226 252/51/232
f 226/34/215 225/37/218 245/40/221
f 226/34/215 245/40/221 246/35/216
f 231/49/230 230/42/223 235/44/225
f 231/49/230 235/44/225 236/46/227
f 252/51/232 251/45/226 241/52/233
f 252/51/232 241/52/233 242/53/234
f 250/47/228 248/54/235 238/55/236
f 250/47/228 238/55/236 240/56/237
f 235/44/225 233/43/224 248/54/235
f 235/44/225 248/54/235 250/47/228
f 223/57/238 227/33/214 247/36/217
f 223/57/238 247/36/217 243/58/239
f 228/59/240 232/48/229 237/50/231
f 228/59/240 237/50/231 234/60/241
f 247/36/217 246/35/216 231/49/230
f 247/36/217 231/49/230 232/48/229
f 243/58/239 247/36/217 232/48/229
f 243/58/239 232/48/229 228/59/240
f 249/61/242 252/51/232 242/53/234
f 249/61/242 242/53/234 239/62/243
f 250/47/228 240/56/237 241/52/233
f 250/47/228 241/52/233 251/45/226
f 234/60/241 237/50/231 252/51/232
f 234/60/241 252/51/232 249/61/242
f 230/42/223 231/49/230 246/35/216
f 230/42/223 246/35/216 245/40/221
f 267/1/244 280/2/245 285/3/246
f 267/1/244 285/3/246 263/4/247
f 264/5/248 274/6/249 277/7/250
f 264/5/248 277/7/250 261/8/251
f 258/9/252 279/10/253 276/11/254
f 258/9/252 276/11/254 266/12/255
f 270/13/256 253/14/257 281/15/258
f 270/13/256 281/15/258 284/16/259
f 266/12/255 276/11/254 274/6/249
f 266/12/255 274/6/249 265/17/260
f 268/18/261 283/19/262 280/2/245
f 268/18/261 280/2/245 267/1/244
f 271/20/263 282/21/264 283/19/262
f 271/20/263 283/19/262 269/22/265
f 260/23/251 278/24/266 275/25/267
f 260/23/251 275/25/267 259/26/268
f 277/7/250 274/6/249 255/27/269
f 277/7/250 255/27/269 254/14/257
f 276/11/254 279/10/253 273/28/270
f 276/11/254 273/28/270 256/29/271
f 273/28/270 279/10/253 258/9/252
f 273/28/270 258/9/252 257/30/272
f 275/25/267 278/24/266 253/14/257
f 275/25/267 253/14/257 270/13/256
f 274/6/249 276/11/254 256/29/271
f 274/6/249 256/29/271 255/27/269
f 280/2/245 283/19/262 255/27/269
f 280/2/245 255/27/269 256/29/271
f 283/19/262 282/21/264 254/14/257
f 283/19/262 254/14/257 255/27/269
f 284/16/259 281/15/258 272/31/273
f 284/16/259 272/31/273 262/32/274
f 263/4/247 285/3/246 273/28/270
f 263/4/247 273/28/270 257/30/272
f 273/28/270 285/3/246 280/2/245
f 273/28/270 280/2/245 256/29/271
f 290/33/275 289/34/276 309/35/277
f 290/33/275 309/35/277 310/36/278
f 288/37/279 287/38/280 307/39/281
f 288/37/279 307/39/281 308/40/282
f 308/40/282 307/39/281 291/41/283
f 308/40/282 291/41/283 293/42/284
f 293/42/284 291/41/283 297/43/285
f 293/42/284 297/43/285 298/44/286
f 314/45/287 299/46/288 298/44/286
f 314/45/287 298/44/286 313/47/289
f 295/48/290 294/49/291 299/46/288
f 295/48/290 299/46/288 300/50/292
f 300/50/292 299/46/288 314/45/287
f 300/50/292 314/45/287 315/51/293
f 289/34/276 288/37/279 308/40/282
f 289/34/276 308/40/282 309/35/277
f 294/49/291 293/42/284 298/44/286
f 294/49/291 298/44/286 299/46/288
f 315/51/293 314/45/287 304/52/294
f 315/51/293 304/52/294 305/53/295
f 313/47/289 312/54/296 302/55/297
f 313/47/289 302/55/297 303/56/298
f 298/44/286 297/43/285 312/54/296
f 298/44/286 312/54/296 313/47/289
f 286/57/280 290/33/275 310/36/278
f 286/57/280 310/36/278 306/58/299
f 292/59/300 295/48/290 300/50/292
f 292/59/300 300/50/292 296/60/301
f 310/36/278 309/35/277 294/49/291
f 310/36/278 294/49/291 295/48/290
f 306/58/299 310/36/278 295/48/290
f 306/58/299 295/48/290 292/59/300
f 311/61/296 315/51/293 305/53/295
f 311/61/296 305/53/295 301/62/302
f 313/47/289 303/56/298 304/52/294
f 313/47/289 304/52/294 314/45/287
f 296/60/301 300/50/292 315/51/293
f 296/60/301 315/51/293 311/61/296
f 293/42/284 294/49/291 309/35/277
f 293/42/284 309/35/277 308/40/282
f 330/1/303 343/2/304 348/3/305
f 330/1/303 348/3/305 326/4/306
f 327/5/307 337/6/308 341/7/309
f 327/5/307 341/7/309 324/8/310
f 321/9/311 342/10/312 339/11/313
f 321/9/311 339/11/313 329/12/314
f 333/13/315 316/14/316 344/15/317
f 333/13/315 344/15/317 347/16/318
f 329/12/314 339/11/313 337/6/308
f 329/12/314 337/6/308 328/17/319
f 331/18/320 346/19/321 343/2/304
f 331/18/320 343/2/304 330/1/303
f 335/20/322 345/21/317 346/19/321
f 335/20/322 346/19/321 332/22/323
f 323/23/324 340/24/325 338/25/326
f 323/23/324 338/25/326 322/26/327
f 341/7/309 337/6/308 318/27/328
f 341/7/309 318/27/328 317/14/329
f 339/11/313 342/10/312 336/28/330
f 339/11/313 336/28/330 319/29/331
f 336/28/330 342/10/312 321/9/311
f 336/28/330 321/9/311 320/30/332
f 338/25/326 340/24/325 316/14/316
f 338/25/326 316/14/316 333/13/315
f 337/6/308 339/11/313 319/29/331
f 337/6/308 319/29/331 318/27/328
f 343/2/304 346/19/321 318/27/328
f 343/2/304 318/27/328 319/29/331
f 346/19/321 345/21/317 317/14/329
f 346/19/321 317/14/329 318/27/328
f 347/16/318 344/15/317 334/31/333
f 347/16/318 334/31/333 325/32/334
f 326/4/306 348/3/305 336/28/330
f 326/4/306 336/28/330 320/30/332
f 336/28/330 348/3/305 343/2/304
f 336/28/330 343/2/304 319/29/331
f 353/33/335 352/34/336 372/35/337
f 353/33/335 372/35/337 373/36/338
f 351/37/339 350/38/340 370/39/341
f 351/37/339 370/39/341 371/40/342
f 371/40/342 370/39/341 355/41/343
f 371/40/342 355/41/343 356/42/344
f 356/42/344 355/41/343 359/43/345
f 356/42/344 359/43/345 361/44/346
f 377/45/347 362/46/348 361/44/346
f 377/45/347 361/44/346 376/47/349
f 358/48/350 357/49/351 362/46/348
f 358/48/350 362/46/348 363/50/352
f 363/50/352 362/46/348 377/45/347
f 363/50/352 377/45/347 378/51/353
f 352/34/336 351/37/339 371/40/342
f 352/34/336 371/40/342 372/35/337
f 357/49/351 356/42/344 361/44/346
f 357/49/351 361/44/346 362/46/348
f 378/51/353 377/45/347 367/52/354
f 378/51/353 367/52/354 368/53/355
f 376/47/349 374/54/356 364/55/357
f 376/47/349 364/55/357 366/56/358
f 361/44/346 359/43/345 374/54/356
f 361/44/346 374/54/356 376/47/349
f 349/57/359 353/33/335 373/36/338
f 349/57/359 373/36/338 369/58/360
f 354/59/361 358/48/350 363/50/352
f 354/59/361 363/50/352 360/60/362
f 373/36/338 372/35/337 357/49/351
f 373/36/338 357/49/351 358/48/350
f 369/58/360 373/36/338 358/48/350
f 369/58/360 358/48/350 354/59/361
f 375/61/356 378/51/353 368/53/355
f 375/61/356 368/53/355 365/62/363
f 376/47/349 366/56/358 367/52/354
f 376/47/349 367/52/354 377/45/347
f 360/60/362 363/50/352 378/51/353
f 360/60/362 378/51/353 375/61/356
f 356/42/344 357/49/351 372/35/337
f 356/42/344 372/35/337 371/40/342
f 393/1/364 406/2/365 411/3/366
f 393/1/364 411/3/366 389/4/367
f 390/5/368 400/6/369 403/7/370
f 390/5/368 403/7/370 387/8/371
f 384/9/372 405/10/373 402/11/374
f 384/9/372 402/11/374 392/12/375
f 396/13/376 379/14/377 407/15/378
f 396/13/376 407/15/378 410/16/379
f 392/12/375 402/11/374 400/6/369
f 392/12/375 400/6/369 391/17/380
f 394/18/381 409/19/382 406/2/365
f 394/18/381 406/2/365 393/1/364
f 397/20/383 408/21/384 409/19/382
f 397/20/383 409/19/382 395/22/385
f 386/23/371 404/24/370 401/25/386
f 386/23/371 401/25/386 385/26/387
f 403/7/370 400/6/369 381/27/388
f 403/7/370 381/27/388 380/14/389
f 402/11/374 405/10/373 399/28/390
f 402/11/374 399/28/390 382/29/391
f 399/28/390 405/10/373 384/9/372
f 399/28/390 384/9/372 383/30/392
f 401/25/386 404/24/370 379/14/377
f 401/25/386 379/14/377 396/13/376
f 400/6/369 402/11/374 382/29/391
f 400/6/369 382/29/391 381/27/388
f 406/2/365 409/19/382 381/27/388
f 406/2/365 381/27/388 382/29/391
f 409/19/382 408/21/384 380/14/389
f 409/19/382 380/14/389 381/27/388
f 410/16/379 407/15/378 398/31/393
f 410/16/379 398/31/393 388/32/394
f 389/4/367 411/3/366 399/28/390
f 389/4/367 399/28/390 383/30/392
f 399/28/390 411/3/366 406/2/365
f 399/28/390 406/2/365 382/29/391
f 416/33/395 415/34/396 435/35/397
f 416/33/395 435/35/397 436/36/398
f 414/37/399 413/38/400 433/39/401
f 414/37/399 433/39/401 434/40/402
f 434/40/402 433/39/401 417/41/403
f 434/40/402 417/41/403 419/42/404
f 419/42/404 417/41/403 422/43/405
f 419/42/404 422/43/405 424/44/406
f 440/45/407 425/46/408 424/44/406
f 440/45/407 424/44/406 439/47/409
f 421/48/410 420/49/411 425/46/408
f 421/48/410 425/46/408 426/50/412
f 426/50/412 425/46/408 440/45/407
f 426/50/412 440/45/407 441/51/413
f 415/34/396 414/37/399 434/40/402
f 415/34/396 434/40/402 435/35/397
f 420/49/411 419/42/404 424/44/406
f 420/49/411 424/44/406 425/46/408
f 441/51/413 440/45/407 430/52/414
f 441/51/413 430/52/414 431/53/415
f 439/47/409 437/54/416 428/55/417
f 439/47/409 428/55/417 429/56/418
f 424/44/406 422/43/405 437/54/416
f 424/44/406 437/54/416 439/47/409
f 412/57/400 416/33/395 436/36/398
f 412/57/400 436/36/398 432/58/419
f 418/59/420 421/48/410 426/50/412
f 418/59/420 426/50/412 423/60/421
f 436/36/398 435/35/397 420/49/411
f 436/36/398 420/49/411 421/48/410
f 432/58/419 436/36/398 421/48/410
f 432/58/419 421/48/410 418/59/420
f 438/61/422 441/51/413 431/53/415
f 438/61/422 431/53/415 427/62/423
f 439/47/409 429/56/418 430/52/414
f 439/47/409 430/52/414 440/45/407
f 423/60/421 426/50/412 441/51/413
f 423/60/421 441/51/413 438/61/422
f 419/42/404 420/49/411 435/35/397
f 419/42/404 435/35/397 434/40/402
o Object_6
v 0.435662 0.123879 0.049260
v 0.435662 0.123879 0.049260
v 0.493845 0.065127 0.059556
v 0.467388 0.108027 0.056021
v 0.365885 0.131551 -0.011593
v 0.483519 0.077805 0.077355
v 0.346361 0.127689 0.049672
v 0.361600 0.122814 0.011838
v 0.457901 0.096563 0.091909
v 0.460677 0.129254 -0.012991
v 0.436428 0.112344 0.101475
v 0.436428 0.112344 0.101475
v 0.383984 0.129826 0.024649
v 0.383984 0.129826 0.024649
v 0.365592 0.137474 0.089869
v 0.365592 0.137474 0.089869
v 0.406022 0.140900 -0.032694
v 0.485010 0.109744 0.013736
v 0.485010 0.109744 0.013736
v 0.406484 0.130595 0.037012
v 0.432819 0.136395 -0.026827
v 0.406731 0.127296 0.104046
v 0.493086 0.088258 0.037884
v 0.485115 0.093304 0.060317
v 0.450204 0.132933 0.019558
v 0.374406 0.142982 0.054726
v 0.374406 0.142982 0.054726
v 0.420255 0.141198 0.006302
v 0.392100 0.145181 0.000486
v 0.478270 0.112229 0.036960
v 0.478270 0.112229 0.036960
v 0.438523 0.125862 0.072005
v 0.438523 0.125862 0.072005
v 0.465566 0.106322 0.073215
v 0.360353 0.136278 0.001007
v 0.349943 0.134208 0.033413
v 0.407610 0.137391 0.065432
v 0.488405 0.095649 0.050428
v 0.481156 0.092725 0.071508
v 0.365552 0.124184 0.014655
v 0.365552 0.124184 0.014655
v 0.366059 0.124379 0.013968
v 0.364863 0.124189 0.012885
v 0.363980 0.123910 0.014152
v 0.341213 0.079645 0.001271
v 0.341213 0.079645 0.001271
v 0.342753 0.079289 -0.000367
v 0.341315 0.080185 -0.001552
v 0.339810 0.080524 0.000044
v 0.331264 0.048884 -0.001568
v 0.331264 0.048884 -0.001568
v 0.332769 0.048534 -0.003077
v 0.331329 0.048965 -0.004465
v 0.329870 0.049298 -0.002974
v 0.324731 0.000268 0.002638
v 0.324731 0.000268 0.002638
v 0.327459 -0.000169 0.000100
v 0.324896 -0.000268 -0.002638
v 0.322168 0.000169 -0.000100
v 0.352106 0.100458 0.006713
v 0.352106 0.100458 0.006713
v 0.353418 0.100615 0.005169
v 0.352008 0.101634 0.004155
v 0.350730 0.101469 0.005640
v 0.326379 0.024185 -0.000627
v 0.326379 0.024185 -0.000627
v 0.328225 0.023858 -0.002354
v 0.326486 0.023987 -0.004182
v 0.324674 0.024308 -0.002475
v 0.219739 0.402823 -0.328784
v 0.219739 0.402823 -0.328784
v 0.128955 0.234264 -0.497135
v 0.172824 0.360472 -0.419383
v 0.215770 0.406420 -0.044586
v 0.190854 0.273846 -0.505514
v 0.397394 0.400250 -0.120875
v 0.278974 0.382411 -0.082726
v 0.275407 0.329084 -0.470581
v 0.024941 0.414351 -0.263006
v 0.340137 0.375185 -0.436094
v 0.340137 0.375185 -0.436094
v 0.264539 0.409213 -0.158623
v 0.264539 0.409213 -0.158623
v 0.453088 0.438917 -0.242892
v 0.453088 0.438917 -0.242892
v 0.087053 0.438359 -0.094380
v 0.039267 0.362499 -0.376584
v 0.039267 0.362499 -0.376584
v 0.248861 0.416916 -0.235242
v 0.047744 0.429723 -0.169312
v 0.404821 0.416442 -0.368828
v 0.079754 0.301654 -0.447645
v 0.147851 0.318978 -0.472282
v 0.121602 0.428548 -0.302079
v 0.353609 0.452125 -0.192871
v 0.353609 0.452125 -0.192871
v 0.149888 0.447101 -0.204422
v 0.192008 0.453931 -0.126542
v 0.106786 0.372318 -0.406196
v 0.106786 0.372318 -0.406196
v 0.267148 0.412577 -0.379912
v 0.267148 0.412577 -0.379912
v 0.216563 0.357428 -0.449442
v 0.256095 0.421760 -0.055565
v 0.352328 0.418400 -0.095729
v 0.312917 0.441892 -0.292503
v 0.118250 0.325251 -0.459923
v 0.181803 0.318175 -0.485279
v 0.277719 0.387626 -0.097193
v 0.277719 0.387626 -0.097193
v 0.275113 0.388202 -0.096976
v 0.274953 0.387277 -0.092094
v 0.279660 0.386466 -0.092597
v 0.294893 0.245889 -0.023644
v 0.294893 0.245889 -0.023644
v 0.288027 0.244815 -0.024072
v 0.288100 0.247152 -0.018193
v 0.294803 0.248173 -0.017768
v 0.308124 0.150008 -0.001459
v 0.308124 0.150008 -0.001459
v 0.301626 0.148965 -0.002061
v 0.301233 0.149854 0.004123
v 0.307598 0.150850 0.004647
v 0.331130 0.001180 -0.004958
v 0.331130 0.001180 -0.004958
v 0.319812 -0.000079 -0.006392
v 0.318496 -0.001180 0.004958
v 0.329816 0.000079 0.006392
v 0.285925 0.311929 -0.055293
v 0.285925 0.311929 -0.055293
v 0.279724 0.312398 -0.055265
v 0.280141 0.315138 -0.049762
v 0.286139 0.314642 -0.049753
v 0.320121 0.073977 0.002767
v 0.320121 0.073977 0.002767
v 0.312440 0.073027 0.001808
v 0.311614 0.072882 0.009495
v 0.319183 0.073817 0.010411
v 0.560802 0.359773 0.137050
v 0.560802 0.359773 0.137050
v 0.720416 0.225874 0.197803
v 0.643496 0.328787 0.169359
v 0.402773 0.348664 -0.045843
v 0.684171 0.259304 0.236933
v 0.330586 0.345411 0.105571
v 0.385085 0.329536 0.014882
v 0.608437 0.303645 0.260886
v 0.647081 0.368238 -0.015305
v 0.545932 0.340444 0.274188
v 0.545932 0.340444 0.274188
v 0.436011 0.356248 0.054107
v 0.436011 0.356248 0.054107
v 0.362463 0.383806 0.213408
v 0.362463 0.383806 0.213408
v 0.511430 0.379585 -0.088019
v 0.704188 0.329712 0.066543
v 0.704188 0.329712 0.066543
v 0.488912 0.366781 0.093673
v 0.579072 0.376387 -0.062394
v 0.465152 0.371489 0.266790
v 0.721027 0.281156 0.136458
v 0.690923 0.296424 0.190107
v 0.607088 0.381283 0.063771
v 0.396953 0.393529 0.124942
v 0.396953 0.393529 0.124942
v 0.533226 0.391882 0.017170
v 0.462206 0.393370 -0.008682
v 0.677565 0.338857 0.123254
v 0.677565 0.338857 0.123254
v 0.559114 0.370142 0.196054
v 0.559114 0.370142 0.196054
v 0.632771 0.327264 0.213294
v 0.382702 0.361843 -0.016524
v 0.344312 0.360029 0.063543
v 0.479480 0.390221 0.165524
v 0.702516 0.301434 0.165315
v 0.676701 0.296051 0.217598
v 0.393836 0.334702 0.023203
v 0.393836 0.334702 0.023203
v 0.395347 0.335207 0.021573
v 0.392731 0.334178 0.018410
v 0.390055 0.333467 0.021417
v 0.347174 0.210417 -0.009453
v 0.347174 0.210417 -0.009453
v 0.351825 0.209596 -0.013033
v 0.348365 0.211287 -0.016798
v 0.343822 0.212066 -0.013307
v 0.330143 0.127704 -0.013119
v 0.330143 0.127704 -0.013119
v 0.334657 0.126913 -0.016381
v 0.331380 0.127364 -0.020559
v 0.326996 0.128120 -0.017321
v 0.323547 0.001187 0.006687
v 0.323547 0.001187 0.006687
v 0.331605 0.000303 0.001233
v 0.326081 -0.001187 -0.006688
v 0.318022 -0.000302 -0.001233
v 0.368051 0.268205 0.003551
v 0.368051 0.268205 0.003551
v 0.371959 0.268664 0.000011
v 0.368476 0.270713 -0.003333
v 0.364677 0.270231 0.000069
v 0.323224 0.062768 -0.006683
v 0.323224 0.062768 -0.006683
v 0.328688 0.062086 -0.010390
v 0.324881 0.061587 -0.015736
v 0.319512 0.062259 -0.012064
v 0.071858 0.291546 0.132335
v 0.071858 0.291546 0.132335
v -0.032226 0.153276 0.224550
v 0.012988 0.254239 0.180941
v 0.286116 0.309602 0.092684
v -0.049942 0.183112 0.179479
v 0.201714 0.300515 -0.032923
v 0.249182 0.289041 0.050513
v -0.039305 0.227260 0.110959
v 0.150049 0.304198 0.269507
v -0.025538 0.264401 0.057374
v -0.025538 0.264401 0.057374
v 0.192821 0.305543 0.073046
v 0.192821 0.305543 0.073046
v 0.099469 0.323543 -0.056257
v 0.099469 0.323543 -0.056257
v 0.266318 0.331607 0.197551
v 0.065179 0.258281 0.275280
v 0.065179 0.258281 0.275280
v 0.137117 0.307353 0.096449
v 0.216306 0.321002 0.238377
v 0.013158 0.299588 -0.001142
v 0.008843 0.207715 0.254852
v -0.020860 0.219589 0.207342
v 0.105353 0.312857 0.202589
v 0.151374 0.336505 0.011394
v 0.151374 0.336505 0.011394
v 0.173598 0.332308 0.166757
v 0.225501 0.341681 0.123352
v 0.032218 0.264129 0.228885
v 0.032218 0.264129 0.228885
v 0.025736 0.296215 0.104340
v 0.025736 0.296215 0.104340
v -0.016049 0.250227 0.152433
v 0.270975 0.320727 0.064054
v 0.226452 0.315856 -0.002538
v 0.083069 0.323348 0.056957
v -0.007439 0.225107 0.227873
v -0.035705 0.218227 0.183675
v 0.238208 0.292266 0.053680
v 0.238208 0.292266 0.053680
v 0.238732 0.292723 0.055619
v 0.242479 0.292276 0.054998
v 0.241436 0.291620 0.051516
v 0.298484 0.187442 0.028379
v 0.298484 0.187442 0.028379
v 0.299252 0.186605 0.033613
v 0.303540 0.188715 0.032696
v 0.302798 0.189512 0.027586
v 0.318271 0.115047 0.014186
v 0.318271 0.115047 0.014186
v 0.318852 0.114224 0.019169
v 0.323517 0.115239 0.018545
v 0.322901 0.116023 0.013674
v 0.320070 0.000630 -0.004010
v 0.320070 0.000630 -0.004010
v 0.320760 -0.000398 0.004732
v 0.329558 -0.000630 0.004010
v 0.328867 0.000398 -0.004732
v 0.272516 0.236426 0.040503
v 0.272516 0.236426 0.040503
v 0.273445 0.236795 0.045180
v 0.277378 0.239194 0.044065
v 0.276509 0.238805 0.039535
v 0.323679 0.056918 0.003804
v 0.323679 0.056918 0.003804
v 0.324163 0.056149 0.009733
v 0.330079 0.056452 0.009201
v 0.329581 0.057208 0.003362
v 0.342832 0.189875 0.185049
v 0.342832 0.189875 0.185049
v 0.373040 0.099824 0.270427
v 0.357775 0.165578 0.232471
v 0.371295 0.201634 0.046024
v 0.341503 0.119255 0.270098
v 0.274837 0.195716 0.066253
v 0.336808 0.188244 0.058005
v 0.302744 0.148007 0.246922
v 0.444752 0.198115 0.171398
v 0.273767 0.172196 0.225507
v 0.273767 0.172196 0.225507
v 0.336626 0.198991 0.097536
v 0.336626 0.198991 0.097536
v 0.235748 0.210713 0.122263
v 0.235748 0.210713 0.122263
v 0.429753 0.215965 0.083620
v 0.427482 0.168210 0.224039
v 0.427482 0.168210 0.224039
v 0.337130 0.200170 0.136882
v 0.442165 0.209059 0.123792
v 0.247909 0.195113 0.187839
v 0.401374 0.135278 0.253048
v 0.365433 0.143012 0.259358
v 0.393430 0.203754 0.182013
v 0.289277 0.219156 0.107476
v 0.289277 0.219156 0.107476
v 0.388490 0.216422 0.132056
v 0.374983 0.222526 0.090112
v 0.391417 0.172019 0.232588
v 0.391417 0.172019 0.232588
v 0.314655 0.192916 0.206043
v 0.314655 0.192916 0.206043
v 0.333466 0.162965 0.243026
v 0.350311 0.208880 0.048162
v 0.299227 0.205707 0.058751
v 0.300075 0.210587 0.159849
v 0.381108 0.146606 0.256278
v 0.347517 0.142125 0.262531
v 0.336036 0.190344 0.065404
v 0.336036 0.190344 0.065404
v 0.337335 0.190642 0.065561
v 0.337876 0.190350 0.063148
v 0.335519 0.189923 0.062926
v 0.335504 0.122076 0.022833
v 0.335504 0.122076 0.022833
v 0.338851 0.121530 0.023649
v 0.339347 0.122904 0.020837
v 0.336081 0.123423 0.020035
v 0.331777 0.074927 0.007418
v 0.331777 0.074927 0.007418
v 0.334926 0.074390 0.008286
v 0.335690 0.075052 0.005318
v 0.332599 0.075562 0.004498
v 0.321233 0.000410 0.001883
v 0.321233 0.000410 0.001883
v 0.326679 -0.000259 0.003604
v 0.328394 -0.000411 -0.001883
v 0.322948 0.000259 -0.003604
v 0.336472 0.153977 0.041472
v 0.336472 0.153977 0.041472
v 0.339523 0.154217 0.042055
v 0.339811 0.155779 0.039409
v 0.336864 0.155526 0.038825
v 0.326832 0.037069 0.001615
v 0.326832 0.037069 0.001615
v 0.330529 0.036568 0.002773
v 0.331655 0.036766 -0.000928
v 0.328008 0.037258 -0.002055
v 0.434906 0.216842 -0.181560
v 0.434906 0.216842 -0.181560
v 0.465676 0.114001 -0.280303
v 0.453676 0.189095 -0.235149
v 0.313784 0.230272 -0.073884
v 0.494294 0.136192 -0.258431
v 0.415836 0.223513 -0.026408
v 0.353519 0.214979 -0.061252
v 0.513888 0.169028 -0.210725
v 0.332358 0.226252 -0.238787
v 0.525742 0.196652 -0.171320
v 0.525742 0.196652 -0.171320
v 0.380724 0.227253 -0.097280
v 0.380724 0.227253 -0.097280
v 0.489894 0.240640 -0.050895
v 0.489894 0.240640 -0.050895
v 0.286037 0.246638 -0.148250
v 0.384158 0.192100 -0.275116
v 0.384158 0.192100 -0.275116
v 0.407175 0.228599 -0.133609
v 0.302163 0.238751 -0.193479
v 0.523626 0.222824 -0.119185
v 0.427877 0.154491 -0.283789
v 0.465063 0.163323 -0.264977
v 0.386555 0.232692 -0.213390
v 0.430826 0.250281 -0.073985
v 0.430826 0.250281 -0.073985
v 0.356903 0.247159 -0.164325
v 0.340567 0.254131 -0.116726
v 0.422989 0.196450 -0.258267
v 0.422989 0.196450 -0.258267
v 0.475035 0.220315 -0.181487
v 0.475035 0.220315 -0.181487
v 0.483127 0.186110 -0.228175
v 0.334437 0.238546 -0.061486
v 0.388398 0.234923 -0.036230
v 0.456773 0.240495 -0.129268
v 0.448621 0.167427 -0.272881
v 0.483618 0.162310 -0.255624
v 0.359286 0.217378 -0.067491
v 0.359286 0.217378 -0.067491
v 0.358206 0.217718 -0.068523
v 0.356060 0.217385 -0.066686
v 0.358064 0.216897 -0.064871
v 0.330654 0.139413 -0.028194
v 0.330654 0.139413 -0.028194
v 0.328151 0.138791 -0.031230
v 0.325774 0.140360 -0.028996
v 0.328213 0.140953 -0.026029
v 0.323519 0.085568 -0.011547
v 0.323519 0.085568 -0.011547
v 0.321233 0.084956 -0.014495
v 0.318504 0.085711 -0.012303
v 0.320770 0.086294 -0.009439
v 0.329376 0.000469 0.000727
v 0.329376 0.000469 0.000727
v 0.325573 -0.000296 -0.004571
v 0.320251 -0.000469 -0.000727
v 0.324055 0.000296 0.004572
v 0.342518 0.175845 -0.045903
v 0.342518 0.175845 -0.045903
v 0.340127 0.176120 -0.048522
v 0.338053 0.177904 -0.046299
v 0.340349 0.177615 -0.043750
v 0.324072 0.042334 -0.002858
v 0.324072 0.042334 -0.002858
v 0.321483 0.041762 -0.006446
v 0.317922 0.041987 -0.003830
v 0.320486 0.042550 -0.000306
v 0.195492 0.152583 -0.074824
v 0.195492 0.152583 -0.074824
v 0.125579 0.080218 -0.095042
v 0.157519 0.133058 -0.087253
v 0.272996 0.162032 0.008829
v 0.140552 0.095833 -0.115491
v 0.304918 0.157276 -0.063653
v 0.281306 0.151272 -0.019308
v 0.173830 0.118938 -0.129966
v 0.156716 0.159204 -0.001852
v 0.201380 0.138376 -0.138875
v 0.201380 0.138376 -0.138875
v 0.255567 0.159908 -0.037925
v 0.255567 0.159908 -0.037925
v 0.286619 0.169328 -0.115399
v 0.286619 0.169328 -0.115399
v 0.221079 0.173549 0.029425
v 0.130408 0.135173 -0.037768
v 0.130408 0.135173 -0.037768
v 0.229627 0.160855 -0.056009
v 0.189027 0.167999 0.018735
v 0.238089 0.156792 -0.138141
v 0.123674 0.108709 -0.068399
v 0.136370 0.114923 -0.094832
v 0.173798 0.163736 -0.040348
v 0.271230 0.176112 -0.073510
v 0.271230 0.176112 -0.073510
v 0.208745 0.173916 -0.020197
v 0.242468 0.178821 -0.009393
v 0.141700 0.138234 -0.065330
v 0.141700 0.138234 -0.065330
v 0.194962 0.155026 -0.103056
v 0.194962 0.155026 -0.103056
v 0.161999 0.130958 -0.108073
v 0.281418 0.167855 -0.005880
v 0.298405 0.165305 -0.044208
v 0.231963 0.169227 -0.090964
v 0.131047 0.117812 -0.083150
v 0.142681 0.114211 -0.108021
v 0.276835 0.152959 -0.023275
v 0.276835 0.152959 -0.023275
v 0.276124 0.153199 -0.022500
v 0.277447 0.152965 -0.021017
v 0.278695 0.152621 -0.022453
v 0.304894 0.098099 -0.003701
v 0.304894 0.098099 -0.003701
v 0.302795 0.097661 -0.001896
v 0.304400 0.098765 -0.000256
v 0.306453 0.099182 -0.002015
v 0.316709 0.060211 0.001078
v 0.316709 0.060211 0.001078
v 0.314668 0.059780 0.002729
v 0.316250 0.060311 0.004617
v 0.318231 0.060721 0.002981
v 0.325259 0.000330 -0.003220
v 0.325259 0.000330 -0.003220
v 0.321587 -0.000208 -0.000468
v 0.324368 -0.000330 0.003220
v 0.328041 0.000208 0.000468
v 0.292265 0.123735 -0.011791
v 0.292265 0.123735 -0.011791
v 0.290456 0.123928 -0.010071
v 0.292050 0.125184 -0.008644
v 0.293810 0.124980 -0.010296
v 0.322814 0.029789 0.000563
v 0.322814 0.029789 0.000563
v 0.320327 0.029386 0.002436
v 0.322219 0.029545 0.004904
v 0.324661 0.029940 0.003049
vn 0.5132 0.8191 0.2562
vn 0.3310 0.9358 0.1213
vn 0.4639 0.8721 0.1559
vn 0.6106 0.7215 0.3267
vn 0.9164 0.2602 0.3041
vn 0.8917 0.4100 0.1918
vn 0.8061 0.5082 0.3032
vn 0.7962 0.5132 0.3204
vn 0.7446 0.5226 0.4152
vn 0.3327 0.9211 0.2022
vn 0.1211 0.9811 0.1508
vn 0.1402 0.9887 0.0532
vn 0.4720 0.7922 0.3869
vn 0.4638 0.8721 0.1559
vn 0.2614 0.9649 0.0255
vn 0.2637 0.9232 0.2795
vn -0.0687 0.9959 0.0595
vn -0.1684 0.9802 0.1045
vn -0.3736 0.9044 0.2061
vn -0.2198 0.9672 0.1274
vn -0.0680 0.9800 0.1870
vn -0.0824 0.9939 -0.0736
vn -0.2021 0.9496 -0.2395
vn -0.4888 0.8682 0.0853
vn 0.6116 0.7470 0.2607
vn -0.0823 0.9939 -0.0736
vn -0.0680 0.9800 0.1871
vn 0.3956 0.9183 0.0167
vn 0.2205 0.9742 -0.0483
vn 0.4721 0.7921 0.3869
vn 0.5987 0.6105 0.5185
vn 0.6667 0.7388 0.0980
vn 0.3311 0.9358 0.1213
vn 0.0210 0.9890 -0.1462
vn -0.3210 0.8941 -0.3124
vn 0.8182 0.3585 0.4494
vn 0.6668 0.7388 0.0980
vn -0.8297 0.3269 0.4525
vn 0.1703 0.2767 -0.9458
vn -0.0544 0.3408 -0.9386
vn -0.8853 0.4182 0.2034
vn 0.8842 -0.4664 -0.0255
vn 0.4073 -0.4910 0.7701
vn 0.0817 -0.3253 0.9421
vn 0.8924 -0.4009 -0.2073
vn -0.0116 -0.1683 0.9857
vn 0.9258 -0.3519 -0.1378
vn -0.0270 -0.0228 0.9994
vn 0.9699 -0.2396 -0.0441
vn -0.0103 -0.0360 -0.9993
vn -0.0339 0.0495 -0.9982
vn 0.9945 -0.1042 0.0068
vn -0.9271 0.3704 0.0574
vn -0.0612 0.2005 -0.9778
vn -0.9673 0.2533 -0.0161
vn -0.9876 0.1499 -0.0464
vn 0.0294 -0.0658 -0.9974
vn -0.9943 0.0993 -0.0390
vn -0.0494 0.0929 0.9944
vn -0.0271 0.1370 0.9902
vn 0.9991 -0.0282 0.0311
vn 0.0818 -0.3253 0.9421
vn -0.0115 -0.1683 0.9857
vn -0.0269 -0.0229 0.9994
vn -0.0493 0.0929 0.9945
vn -0.0270 0.1370 0.9902
vn -0.1379 0.8559 -0.4985
vn -0.1232 0.9564 -0.2647
vn -0.1827 0.9014 -0.3925
vn -0.1470 0.7668 -0.6249
vn -0.3610 0.3215 -0.8754
vn -0.4311 0.4645 -0.7736
vn -0.2911 0.5631 -0.7734
vn -0.2715 0.5684 -0.7767
vn -0.1659 0.5796 -0.7979
vn -0.0626 0.9456 -0.3192
vn 0.0350 0.9921 -0.1209
vn -0.0519 0.9961 -0.0719
vn -0.0116 0.8329 -0.5533
vn -0.1514 0.9774 -0.1479
vn 0.0410 0.9477 -0.3164
vn 0.0880 0.9926 0.0836
vn 0.1869 0.9738 0.1293
vn 0.3972 0.8923 0.2146
vn 0.2375 0.9593 0.1527
vn 0.1849 0.9828 -0.0003
vn -0.0046 0.9837 0.1797
vn -0.0536 0.9256 0.3747
vn 0.3796 0.8445 0.3777
vn -0.1980 0.7893 -0.5813
vn -0.0047 0.9837 0.1796
vn 0.1849 0.9828 -0.0004
vn -0.2448 0.9375 -0.2475
vn -0.1812 0.9811 -0.0685
vn -0.0116 0.8328 -0.5534
vn 0.0072 0.6644 -0.7473
vn -0.3578 0.7764 -0.5188
vn -0.1233 0.9564 -0.2647
vn -0.1981 0.7892 -0.5813
vn -0.1268 0.9809 0.1476
vn -0.0322 0.8606 0.5083
vn -0.1870 0.4213 -0.8874
vn -0.3578 0.7764 -0.5189
vn 0.8812 0.3038 0.3623
vn -0.8320 0.2408 0.4999
vn -0.6813 0.2934 0.6706
vn 0.7269 0.3805 0.5717
vn -0.5905 -0.4203 -0.6890
vn 0.3248 -0.4326 -0.8410
vn 0.6663 -0.2763 -0.6926
vn -0.7345 -0.3630 -0.5733
vn 0.7596 -0.1225 -0.6388
vn -0.7033 -0.3091 -0.6402
vn 0.7797 0.0224 -0.6257
vn -0.6606 -0.1904 -0.7262
vn -0.7554 -0.0830 0.6500
vn -0.7395 0.0011 0.6732
vn -0.6378 -0.0517 -0.7685
vn 0.6427 0.3238 0.6943
vn -0.7065 0.1513 0.6913
vn 0.6129 0.2015 0.7641
vn 0.6031 0.0958 0.7919
vn -0.7796 -0.1106 0.6164
vn 0.6131 0.0453 0.7887
vn 0.7902 0.1365 -0.5974
vn 0.7725 0.1814 -0.6085
vn -0.6224 0.0255 -0.7822
vn 0.6662 -0.2763 -0.6927
vn 0.7595 -0.1225 -0.6389
vn 0.7797 0.0223 -0.6258
vn 0.7902 0.1365 -0.5975
vn 0.7725 0.1814 -0.6086
vn 0.3926 0.8852 0.2495
vn 0.2218 0.9717 0.0812
vn 0.3536 0.9250 0.1390
vn 0.4874 0.8038 0.3410
vn 0.8348 0.3766 0.4016
vn 0.8127 0.5142 0.2740
vn 0.7033 0.6110 0.3634
vn 0.6906 0.6162 0.3787
vn 0.6252 0.6273 0.4643
vn 0.2132 0.9634 0.1625
vn 0.0066 0.9970 0.0777
vn 0.0388 0.9991 -0.0167
vn 0.3357 0.8640 0.3752
vn 0.1644 0.9861 -0.0255
vn 0.1338 0.9641 0.2292
vn -0.1687 0.9849 -0.0397
vn -0.2719 0.9623 -0.0074
vn -0.4817 0.8734 0.0717
vn -0.3246 0.9458 0.0093
vn -0.1849 0.9788 0.0877
vn -0.1627 0.9714 -0.1726
vn -0.2527 0.9025 -0.3487
vn -0.5744 0.8164 -0.0599
vn 0.4956 0.8243 0.2737
vn -0.1687 0.9849 -0.0396
vn -0.1626 0.9715 -0.1726
vn -0.1849 0.9788 0.0878
vn 0.3021 0.9532 -0.0117
vn 0.1338 0.9855 -0.1047
vn 0.3358 0.8640 0.3752
vn 0.4584 0.7070 0.5385
vn 0.5742 0.8097 0.1214
vn 0.2218 0.9717 0.0811
vn -0.0500 0.9720 -0.2298
vn -0.3541 0.8296 -0.4317
vn 0.7080 0.4748 0.5228
vn -0.9130 0.2716 0.3044
vn 0.2786 0.2208 -0.9347
vn 0.0503 0.2615 -0.9639
vn -0.9403 0.3376 0.0429
vn 0.9181 -0.3721 0.1368
vn 0.3357 -0.3863 0.8591
vn -0.0253 -0.2430 0.9697
vn 0.9462 -0.3200 -0.0472
vn -0.1380 -0.0937 0.9860
vn 0.9646 -0.2627 0.0215
vn -0.1687 0.0499 0.9844
vn 0.9841 -0.1396 0.1098
vn 0.1373 -0.1121 -0.9842
vn 0.1060 -0.0297 -0.9939
vn 0.9885 0.0010 0.1514
vn -0.9560 0.2748 -0.1026
vn 0.0621 0.1188 -0.9910
vn -0.9741 0.1490 -0.1701
vn -0.9802 0.0420 -0.1936
vn 0.1790 -0.1374 -0.9742
vn -0.9831 -0.0083 -0.1827
vn -0.2007 0.1620 0.9662
vn -0.1823 0.2077 0.9611
vn 0.9824 0.0787 0.1691
vn -0.0252 -0.2430 0.9697
vn -0.1379 -0.0938 0.9860
vn -0.1686 0.0498 0.9844
vn -0.1822 0.2077 0.9611
vn -0.5197 0.8191 0.2428
vn -0.3008 0.9358 0.1839
vn -0.4104 0.8721 0.2665
vn -0.6354 0.7215 0.2753
vn -0.8078 0.2602 0.5289
vn -0.7044 0.4100 0.5793
vn -0.7385 0.5082 0.4432
vn -0.7459 0.5132 0.4247
vn -0.7880 0.5226 0.3254
vn -0.3652 0.9211 0.1350
vn -0.1935 0.9811 0.0011
vn -0.1288 0.9887 0.0768
vn -0.5964 0.7922 0.1293
vn -0.1824 0.9649 0.1890
vn -0.3829 0.9232 0.0329
vn -0.0039 0.9959 -0.0908
vn 0.0228 0.9802 -0.1969
vn 0.0707 0.9044 -0.4208
vn 0.0368 0.9672 -0.2513
vn -0.1043 0.9800 -0.1695
vn 0.1089 0.9939 -0.0188
vn 0.3133 0.9496 -0.0095
vn 0.2370 0.8682 -0.4360
vn -0.5843 0.7470 0.3171
vn 0.1088 0.9939 -0.0187
vn -0.2590 0.9183 0.2995
vn -0.0992 0.9742 0.2028
vn -0.5965 0.7921 0.1294
vn -0.7783 0.6105 0.1468
vn -0.4911 0.7388 0.4615
vn -0.3007 0.9358 0.1840
vn 0.1015 0.9890 0.1073
vn 0.4442 0.8941 -0.0574
vn -0.8606 0.3585 0.3617
vn 0.1611 0.3268 -0.9312
vn 0.6351 0.2766 0.7212
vn 0.7691 0.3408 0.5407
vn 0.3908 0.4182 -0.8200
vn -0.5295 -0.4664 0.7086
vn -0.8564 -0.4910 -0.1595
vn -0.7889 -0.3253 -0.5214
vn -0.3922 -0.4009 0.8279
vn -0.7650 -0.1683 -0.6216
vn -0.4674 -0.3519 0.8110
vn -0.7662 -0.0228 -0.6422
vn -0.5682 -0.2396 0.7873
vn 0.7893 -0.0360 0.6129
vn 0.8031 0.0495 0.5938
vn -0.6234 -0.1042 0.7749
vn 0.5312 0.3704 -0.7620
vn 0.8041 0.2006 0.5596
vn 0.6137 0.2533 -0.7478
vn 0.6501 0.1499 -0.7449
vn 0.7631 -0.0658 0.6429
vn 0.6485 0.0993 -0.7547
vn -0.7484 0.0929 -0.6567
vn -0.7589 0.1370 -0.6366
vn -0.6453 -0.0282 0.7634
vn -0.7651 -0.1683 -0.6216
vn -0.7662 -0.0229 -0.6422
vn -0.7485 0.0929 -0.6566
vn -0.7590 0.1370 -0.6366
vn 0.0299 0.8191 0.5728
vn 0.0575 0.9358 0.3478
vn 0.0929 0.8721 0.4804
vn 0.0166 0.7215 0.6923
vn 0.1866 0.2601 0.9474
vn 0.2724 0.4100 0.8704
vn 0.1334 0.5082 0.8509
vn 0.1135 0.5132 0.8507
vn 0.0056 0.5226 0.8525
vn -0.0120 0.9211 0.3892
vn -0.0716 0.9811 0.1797
vn 0.0228 0.9887 0.1482
vn -0.1041 0.7922 0.6014
vn 0.1066 0.9649 0.2400
vn -0.1133 0.9232 0.3672
vn -0.0856 0.9959 -0.0305
vn -0.1739 0.9802 -0.0950
vn -0.3635 0.9044 -0.2236
vn -0.2191 0.9672 -0.1285
vn -0.1963 0.9800 0.0330
vn 0.0235 0.9939 -0.1080
vn 0.1088 0.9496 -0.2939
vn -0.3151 0.8682 -0.3833
vn 0.0745 0.7470 0.6606
vn 0.0235 0.9939 -0.1079
vn 0.1804 0.9183 0.3524
vn 0.1507 0.9742 0.1681
vn -0.1041 0.7921 0.6014
vn -0.1562 0.6105 0.7765
vn 0.2433 0.7388 0.6284
vn 0.0576 0.9358 0.3478
vn 0.0745 0.7470 0.6607
vn 0.1376 0.9890 -0.0538
vn 0.1136 0.8941 -0.4332
vn 0.0121 0.3585 0.9335
vn 0.2433 0.7388 0.6285
vn -0.8026 0.3268 -0.4990
vn 0.9069 0.2766 -0.3178
vn 0.7899 0.3408 -0.5098
vn -0.6132 0.4182 -0.6701
vn 0.4579 -0.4664 0.7569
vn -0.4694 -0.4909 0.7339
vn -0.7795 -0.3253 0.5353
vn 0.6201 -0.4009 0.6744
vn -0.8634 -0.1683 0.4756
vn 0.5761 -0.3519 0.7377
vn -0.8829 -0.0228 0.4689
vn 0.5164 -0.2395 0.8222
vn 0.8645 -0.0360 -0.5014
vn 0.8519 0.0495 -0.5214
vn 0.4841 -0.1042 0.8688
vn -0.5067 0.3704 -0.7785
vn 0.8206 0.2006 -0.5351
vn -0.4626 0.2533 -0.8496
vn -0.4463 0.1499 -0.8823
vn 0.8824 -0.0658 -0.4658
vn -0.4560 0.0993 -0.8844
vn -0.8897 0.0929 0.4470
vn -0.8750 0.1370 0.4643
vn 0.4653 -0.0282 0.8847
vn -0.4694 -0.4910 0.7339
vn -0.7795 -0.3253 0.5354
vn -0.8634 -0.1683 0.4757
vn -0.8829 -0.0229 0.4690
vn -0.8896 0.0929 0.4471
vn -0.8750 0.1370 0.4644
vn 0.3191 0.8191 -0.4766
vn 0.1623 0.9358 -0.3130
vn 0.2133 0.8721 -0.4404
vn 0.4013 0.7215 -0.5643
vn 0.4177 0.2602 -0.8705
vn 0.3032 0.4100 -0.8602
vn 0.4028 0.5082 -0.7613
vn 0.4186 0.5132 -0.7493
vn 0.5061 0.5226 -0.6861
vn 0.2427 0.9211 -0.3045
vn 0.1650 0.9811 -0.1011
vn 0.0705 0.9887 -0.1324
vn 0.4435 0.7922 -0.4192
vn 0.0584 0.9649 -0.2561
vn 0.3106 0.9232 -0.2262
vn 0.0503 0.9959 0.0757
vn 0.0824 0.9802 0.1802
vn 0.1571 0.9044 0.3967
vn 0.0985 0.9672 0.2341
vn 0.1769 0.9800 0.0912
vn -0.0834 0.9939 0.0724
vn -0.2632 0.9496 0.1702
vn 0.0227 0.8682 0.4957
vn 0.3360 0.7470 -0.5736
vn -0.0834 0.9939 0.0723
vn 0.1770 0.9800 0.0911
vn 0.0666 0.9183 -0.3903
vn -0.0200 0.9742 -0.2248
vn 0.4436 0.7921 -0.4193
vn 0.5901 0.6105 -0.5283
vn 0.1816 0.7388 -0.6490
vn 0.1622 0.9358 -0.3130
vn 0.3360 0.7470 -0.5737
vn -0.1424 0.9890 -0.0393
vn -0.3505 0.8941 0.2789
vn 0.5494 0.3585 -0.7548
vn 0.3439 0.3268 0.8803
vn -0.9166 0.2766 -0.2886
vn -0.9379 0.3408 -0.0649
vn 0.0897 0.4182 0.9039
vn 0.0866 -0.4664 -0.8803
vn 0.8155 -0.4910 -0.3065
vn 0.9448 -0.3253 0.0382
vn -0.0926 -0.4009 -0.9114
vn 0.9763 -0.1683 0.1362
vn -0.0195 -0.3519 -0.9358
vn 0.9879 -0.0228 0.1533
vn 0.0789 -0.2395 -0.9677
vn -0.9926 -0.0360 -0.1162
vn -0.9945 0.0495 -0.0927
vn 0.1327 -0.1042 -0.9857
vn -0.0604 0.3704 0.9269
vn -0.9777 0.2006 -0.0630
vn -0.1384 0.2534 0.9574
vn -0.1710 0.1499 0.9738
vn -0.9856 -0.0658 -0.1554
vn -0.1646 0.0993 0.9814
vn 0.9802 0.0929 0.1749
vn 0.9788 0.1370 0.1522
vn 0.1573 -0.0282 -0.9871
vn 0.8154 -0.4910 -0.3066
vn 0.9448 -0.3253 0.0381
vn 0.9763 -0.1683 0.1361
vn 0.9879 -0.0229 0.1532
vn 0.9802 0.0929 0.1748
vn -0.4831 0.8191 -0.3093
vn -0.3163 0.9358 -0.1558
vn -0.4447 0.8721 -0.2042
vn -0.5724 0.7215 -0.3897
vn -0.8789 0.2602 -0.3999
vn -0.8663 0.4100 -0.2854
vn -0.7694 0.5082 -0.3870
vn -0.7577 0.5132 -0.4031
vn -0.6964 0.5226 -0.4919
vn -0.3094 0.9211 -0.2364
vn -0.1044 0.9811 -0.1629
vn -0.1338 0.9887 -0.0678
vn -0.4283 0.7922 -0.4348
vn -0.2573 0.9649 -0.0531
vn -0.2326 0.9232 -0.3059
vn 0.0747 0.9959 -0.0518
vn 0.1785 0.9802 -0.0861
vn 0.3934 0.9044 -0.1653
vn 0.2320 0.9672 -0.1033
vn 0.0875 0.9800 -0.1788
vn 0.0741 0.9939 0.0819
vn 0.1756 0.9496 0.2596
vn 0.4951 0.8682 -0.0329
vn -0.5804 0.7470 -0.3241
vn 0.0746 0.9959 -0.0518
vn 0.0740 0.9939 0.0819
vn -0.3916 0.9183 -0.0586
vn -0.2244 0.9742 0.0246
vn -0.4283 0.7921 -0.4348
vn -0.5403 0.6105 -0.5792
vn -0.6526 0.7388 -0.1682
vn -0.3163 0.9358 -0.1557
vn -0.5805 0.7470 -0.3241
vn -0.0364 0.9890 0.1432
vn 0.2860 0.8941 0.3447
vn -0.7659 0.3585 -0.5338
vn 0.8730 0.3268 -0.3619
vn -0.2697 0.2766 0.9223
vn -0.0456 0.3408 0.9390
vn 0.9019 0.4182 -0.1083
vn -0.8819 -0.4664 -0.0685
vn -0.3232 -0.4910 -0.8090
vn 0.0187 -0.3253 -0.9454
vn -0.9093 -0.4009 0.1114
vn 0.1161 -0.1683 -0.9789
vn -0.9352 -0.3519 0.0388
vn 0.1329 -0.0228 -0.9909
vn -0.9691 -0.2395 -0.0590
vn -0.0958 -0.0360 0.9947
vn -0.0722 0.0495 0.9962
vn -0.9882 -0.1042 -0.1124
vn 0.9280 0.3704 0.0414
vn -0.0429 0.2006 0.9787
vn 0.9601 0.2534 0.1186
vn 0.9771 0.1499 0.1510
vn -0.1351 -0.0658 0.9886
vn 0.9845 0.0993 0.1443
vn 0.1547 0.0929 -0.9836
vn 0.1321 0.1370 -0.9817
vn -0.9902 -0.0282 -0.1370
vn -0.3233 -0.4910 -0.8090
vn 0.1160 -0.1683 -0.9789
vn 0.1329 -0.0229 -0.9909
vn 0.1546 0.0929 -0.9836
vn 0.1320 0.1370 -0.9817
vt 0.746046 0.275214
vt 0.589110 0.286543
vt 0.625222 0.361630
vt 0.761810 0.337691
vt 0.981626 0.210903
vt 0.871536 0.155425
vt 0.845560 0.207830
vt 0.854651 0.245566
vt 0.857914 0.298665
vt 0.594796 0.162117
vt 0.451092 0.150279
vt 0.442457 0.276227
vt 0.677924 0.471213
vt 0.625222 0.361630
vt 0.483328 0.373850
vt 0.541260 0.512221
vt 0.323051 0.259349
vt 0.328832 0.162313
vt 0.203165 0.202040
vt 0.204893 0.241896
vt 0.340625 0.509574
vt 0.331135 0.374463
vt 0.204371 0.328744
vt 0.203993 0.391696
vt 0.752581 0.192390
vt 0.323051 0.259349
vt 0.340624 0.509574
vt 0.600541 0.036398
vt 0.460065 0.019412
vt 0.677924 0.471213
vt 0.781727 0.416631
vt 0.759416 0.105755
vt 0.589110 0.286543
vt 0.752581 0.192390
vt 0.336724 0.029861
vt 0.201011 0.152349
vt 0.920584 0.308709
vt 0.165661 0.024191
vt 0.161567 0.024282
vt 0.162822 0.204115
vt 0.172079 0.203994
vt 0.158787 0.024397
vt 0.154948 0.024250
vt 0.144418 0.203972
vt 0.153610 0.204093
vt 0.146119 0.333906
vt 0.154920 0.333828
vt 0.148189 0.636538
vt 0.156985 0.636577
vt 0.167037 0.813112
vt 0.165821 0.636736
vt 0.154841 0.812978
vt 0.172646 0.333504
vt 0.163471 0.333594
vt 0.174887 0.636636
vt 0.179170 0.812809
vt 0.167551 0.984413
vt 0.188674 0.983851
vt 0.142982 0.812462
vt 0.127326 0.982536
vt 0.147409 0.983943
vt 0.168302 0.023837
vt 0.181360 0.203753
vt 0.181548 0.333627
vt 0.183940 0.636259
vt 0.191429 0.812108
vt 0.209396 0.982192
s 1
usemtl Monstera_Mat
f 445/63/424 443/64/425 474/65/426
f 445/63/424 474/65/426 475/66/427
f 444/67/428 464/68/429 479/69/430
f 444/67/428 479/69/430 465/70/431
f 445/63/424 475/66/427 480/71/432
f 445/63/424 480/71/432 465/70/431
f 443/64/425 466/72/433 469/73/434
f 443/64/425 469/73/434 461/74/435
f 453/75/436 473/76/437 478/77/438
f 453/75/436 478/77/438 463/78/439
f 455/79/440 470/80/441 476/81/442
f 455/79/440 476/81/442 449/82/443
f 457/83/444 467/84/445 477/85/446
f 457/83/444 477/85/446 448/86/447
f 445/63/424 472/87/448 466/72/433
f 445/63/424 466/72/433 443/64/425
f 461/74/435 469/73/434 470/80/441
f 461/74/435 470/80/441 454/88/440
f 463/78/439 478/77/438 468/84/449
f 463/78/439 468/84/449 456/89/450
f 468/84/449 478/77/438 461/74/435
f 468/84/449 461/74/435 454/88/440
f 477/85/446 467/84/445 455/79/440
f 477/85/446 455/79/440 449/82/443
f 469/73/434 466/72/433 451/90/451
f 469/73/434 451/90/451 462/91/452
f 475/66/427 474/65/426 452/92/453
f 475/66/427 452/92/453 450/93/454
f 466/72/433 472/87/448 460/94/455
f 466/72/433 460/94/455 451/90/451
f 478/77/438 473/76/437 442/95/456
f 478/77/438 442/95/456 461/74/435
f 465/70/431 479/69/430 471/96/448
f 465/70/431 471/96/448 445/63/424
f 470/80/441 469/73/434 462/91/452
f 470/80/441 462/91/452 458/97/457
f 476/81/442 470/80/441 458/97/457
f 476/81/442 458/97/457 446/98/458
f 465/70/431 480/71/432 447/99/459
f 465/70/431 447/99/459 444/67/428
f 447/99/459 480/71/432 475/66/427
f 447/99/459 475/66/427 450/93/454
f 479/69/430 464/68/429 459/94/460
f 479/69/430 459/94/460 471/96/448
f 485/100/461 484/101/462 504/102/463
f 485/100/461 504/102/463 505/103/464
f 483/104/465 482/105/466 502/106/467
f 483/104/465 502/106/467 503/107/468
f 503/107/468 502/106/467 487/108/469
f 503/107/468 487/108/469 488/109/470
f 488/109/470 487/108/469 492/110/471
f 488/109/470 492/110/471 493/111/472
f 509/112/473 494/113/474 493/111/472
f 509/112/473 493/111/472 508/114/475
f 490/115/476 489/116/477 494/113/474
f 490/115/476 494/113/474 495/117/478
f 495/117/478 494/113/474 509/112/473
f 495/117/478 509/112/473 510/118/479
f 484/101/462 483/104/465 503/107/468
f 484/101/462 503/107/468 504/102/463
f 489/116/477 488/109/470 493/111/472
f 489/116/477 493/111/472 494/113/474
f 510/118/479 509/112/473 499/119/480
f 510/118/479 499/119/480 500/120/481
f 508/114/475 507/121/482 497/122/483
f 508/114/475 497/122/483 498/123/484
f 493/111/472 492/110/471 507/121/482
f 493/111/472 507/121/482 508/114/475
f 481/124/466 485/100/461 505/103/464
f 481/124/466 505/103/464 501/125/485
f 486/126/486 490/115/476 495/117/478
f 486/126/486 495/117/478 491/127/487
f 505/103/464 504/102/463 489/116/477
f 505/103/464 489/116/477 490/115/476
f 501/125/485 505/103/464 490/115/476
f 501/125/485 490/115/476 486/126/486
f 506/128/488 510/118/479 500/120/481
f 506/128/488 500/120/481 496/129/489
f 508/114/475 498/123/484 499/119/480
f 508/114/475 499/119/480 509/112/473
f 491/127/487 495/117/478 510/118/479
f 491/127/487 510/118/479 506/128/488
f 488/109/470 489/116/477 504/102/463
f 488/109/470 504/102/463 503/107/468
f 514/63/490 511/64/491 542/65/492
f 514/63/490 542/65/492 544/66/493
f 513/67/494 533/68/495 548/69/496
f 513/67/494 548/69/496 534/70/497
f 514/63/490 544/66/493 549/71/498
f 514/63/490 549/71/498 534/70/497
f 511/64/491 535/72/499 538/73/500
f 511/64/491 538/73/500 530/74/501
f 521/75/502 543/76/492 547/77/503
f 521/75/502 547/77/503 532/78/504
f 523/79/505 539/80/506 545/81/507
f 523/79/505 545/81/507 518/82/508
f 525/83/509 537/84/510 546/85/511
f 525/83/509 546/85/511 517/86/512
f 514/63/490 540/87/513 535/72/499
f 514/63/490 535/72/499 511/64/491
f 530/74/501 538/73/500 539/80/506
f 530/74/501 539/80/506 524/88/505
f 532/78/504 547/77/503 536/84/514
f 532/78/504 536/84/514 526/89/515
f 536/84/514 547/77/503 530/74/501
f 536/84/514 530/74/501 524/88/505
f 546/85/511 537/84/510 523/79/505
f 546/85/511 523/79/505 518/82/508
f 538/73/500 535/72/499 520/90/516
f 538/73/500 520/90/516 531/91/517
f 544/66/493 542/65/492 522/92/518
f 544/66/493 522/92/518 519/93/519
f 535/72/499 540/87/513 528/94/520
f 535/72/499 528/94/520 520/90/516
f 547/77/503 543/76/492 512/95/521
f 547/77/503 512/95/521 530/74/501
f 534/70/497 548/69/496 541/96/522
f 534/70/497 541/96/522 514/63/490
f 539/80/506 538/73/500 531/91/517
f 539/80/506 531/91/517 527/97/523
f 545/81/507 539/80/506 527/97/523
f 545/81/507 527/97/523 515/98/524
f 534/70/497 549/71/498 516/99/525
f 534/70/497 516/99/525 513/67/494
f 516/99/525 549/71/498 544/66/493
f 516/99/525 544/66/493 519/93/519
f 548/69/496 533/68/495 529/94/526
f 548/69/496 529/94/526 541/96/522
f 554/100/527 553/101/528 573/102/529
f 554/100/527 573/102/529 574/103/530
f 552/104/531 550/105/532 570/106/533
f 552/104/531 570/106/533 572/107/534
f 572/107/534 570/106/533 555/108/535
f 572/107/534 555/108/535 557/109/536
f 557/109/536 555/108/535 560/110/537
f 557/109/536 560/110/537 562/111/538
f 578/112/539 563/113/540 562/111/538
f 578/112/539 562/111/538 577/114/541
f 559/115/542 558/116/543 563/113/540
f 559/115/542 563/113/540 564/117/544
f 564/117/544 563/113/540 578/112/539
f 564/117/544 578/112/539 579/118/545
f 553/101/528 552/104/531 572/107/534
f 553/101/528 572/107/534 573/102/529
f 558/116/543 557/109/536 562/111/538
f 558/116/543 562/111/538 563/113/540
f 579/118/545 578/112/539 568/119/546
f 579/118/545 568/119/546 569/120/547
f 577/114/541 575/121/548 565/122/549
f 577/114/541 565/122/549 567/123/550
f 562/111/538 560/110/537 575/121/548
f 562/111/538 575/121/548 577/114/541
f 551/124/532 554/100/527 574/103/530
f 551/124/532 574/103/530 571/125/551
f 556/126/552 559/115/542 564/117/544
f 556/126/552 564/117/544 561/127/553
f 574/103/530 573/102/529 558/116/543
f 574/103/530 558/116/543 559/115/542
f 571/125/551 574/103/530 559/115/542
f 571/125/551 559/115/542 556/126/552
f 576/128/554 579/118/545 569/120/547
f 576/128/554 569/120/547 566/129/555
f 577/114/541 567/123/550 568/119/546
f 577/114/541 568/119/546 578/112/539
f 561/127/553 564/117/544 579/118/545
f 561/127/553 579/118/545 576/128/554
f 557/109/536 558/116/543 573/102/529
f 557/109/536 573/102/529 572/107/534
f 583/63/556 581/64/557 612/65/558
f 583/63/556 612/65/558 613/66/559
f 582/67/560 602/68/561 617/69/562
f 582/67/560 617/69/562 603/70/563
f 583/63/556 613/66/559 618/71/564
f 583/63/556 618/71/564 603/70/563
f 581/64/557 604/72/565 607/73/566
f 581/64/557 607/73/566 599/74/567
f 591/75/568 611/76/558 616/77/569
f 591/75/568 616/77/569 601/78/570
f 593/79/571 608/80/572 614/81/573
f 593/79/571 614/81/573 587/82/574
f 595/83/575 605/84/576 615/85/577
f 595/83/575 615/85/577 586/86/578
f 583/63/556 610/87/579 604/72/565
f 583/63/556 604/72/565 581/64/557
f 599/74/567 607/73/566 608/80/572
f 599/74/567 608/80/572 592/88/580
f 601/78/570 616/77/569 606/84/581
f 601/78/570 606/84/581 594/89/582
f 606/84/581 616/77/569 599/74/567
f 606/84/581 599/74/567 592/88/580
f 615/85/577 605/84/576 593/79/571
f 615/85/577 593/79/571 587/82/574
f 607/73/566 604/72/565 589/90/583
f 607/73/566 589/90/583 600/91/584
f 613/66/559 612/65/558 590/92/585
f 613/66/559 590/92/585 588/93/586
f 604/72/565 610/87/579 598/94/587
f 604/72/565 598/94/587 589/90/583
f 616/77/569 611/76/558 580/95/588
f 616/77/569 580/95/588 599/74/567
f 603/70/563 617/69/562 609/96/579
f 603/70/563 609/96/579 583/63/556
f 608/80/572 607/73/566 600/91/584
f 608/80/572 600/91/584 596/97/589
f 614/81/573 608/80/572 596/97/589
f 614/81/573 596/97/589 584/98/590
f 603/70/563 618/71/564 585/99/591
f 603/70/563 585/99/591 582/67/560
f 585/99/591 618/71/564 613/66/559
f 585/99/591 613/66/559 588/93/586
f 617/69/562 602/68/561 597/94/587
f 617/69/562 597/94/587 609/96/579
f 623/100/592 622/101/593 642/102/594
f 623/100/592 642/102/594 643/103/595
f 621/104/596 620/105/597 640/106/598
f 621/104/596 640/106/598 641/107/599
f 641/107/599 640/106/598 625/108/600
f 641/107/599 625/108/600 626/109/601
f 626/109/601 625/108/600 630/110/602
f 626/109/601 630/110/602 631/111/603
f 647/112/604 632/113/605 631/111/603
f 647/112/604 631/111/603 646/114/606
f 628/115/607 627/116/608 632/113/605
f 628/115/607 632/113/605 633/117/609
f 633/117/609 632/113/605 647/112/604
f 633/117/609 647/112/604 648/118/610
f 622/101/593 621/104/596 641/107/599
f 622/101/593 641/107/599 642/102/594
f 627/116/608 626/109/601 631/111/603
f 627/116/608 631/111/603 632/113/605
f 648/118/610 647/112/604 637/119/611
f 648/118/610 637/119/611 638/120/612
f 646/114/606 645/121/613 635/122/614
f 646/114/606 635/122/614 636/123/615
f 631/111/603 630/110/602 645/121/613
f 631/111/603 645/121/613 646/114/606
f 619/124/597 623/100/592 643/103/595
f 619/124/597 643/103/595 639/125/616
f 624/126/617 628/115/607 633/117/609
f 624/126/617 633/117/609 629/127/618
f 643/103/595 642/102/594 627/116/608
f 643/103/595 627/116/608 628/115/607
f 639/125/616 643/103/595 628/115/607
f 639/125/616 628/115/607 624/126/617
f 644/128/613 648/118/610 638/120/612
f 644/128/613 638/120/612 634/129/619
f 646/114/606 636/123/615 637/119/611
f 646/114/606 637/119/611 647/112/604
f 629/127/618 633/117/609 648/118/610
f 629/127/618 648/118/610 644/128/613
f 626/109/601 627/116/608 642/102/594
f 626/109/601 642/102/594 641/107/599
f 652/63/620 650/64/621 681/65/622
f 652/63/620 681/65/622 682/66/623
f 651/67/624 671/68/625 686/69/626
f 651/67/624 686/69/626 672/70/627
f 652/63/620 682/66/623 687/71/628
f 652/63/620 687/71/628 672/70/627
f 650/64/621 673/72/629 676/73/630
f 650/64/621 676/73/630 668/74/631
f 660/75/632 680/76/622 685/77/633
f 660/75/632 685/77/633 670/78/634
f 662/79/635 677/80/636 683/81/637
f 662/79/635 683/81/637 656/82/638
f 664/83/639 674/84/640 684/85/641
f 664/83/639 684/85/641 655/86/642
f 652/63/620 679/87/643 673/72/629
f 652/63/620 673/72/629 650/64/621
f 668/74/631 676/73/630 677/80/636
f 668/74/631 677/80/636 661/88/635
f 670/78/634 685/77/633 675/84/644
f 670/78/634 675/84/644 663/89/639
f 675/84/644 685/77/633 668/74/631
f 675/84/644 668/74/631 661/88/635
f 684/85/641 674/84/640 662/79/635
f 684/85/641 662/79/635 656/82/638
f 676/73/630 673/72/629 658/90/645
f 676/73/630 658/90/645 669/91/646
f 682/66/623 681/65/622 659/92/647
f 682/66/623 659/92/647 657/93/648
f 673/72/629 679/87/643 667/94/649
f 673/72/629 667/94/649 658/90/645
f 685/77/633 680/76/622 649/95/650
f 685/77/633 649/95/650 668/74/631
f 672/70/627 686/69/626 678/96/643
f 672/70/627 678/96/643 652/63/620
f 677/80/636 676/73/630 669/91/646
f 677/80/636 669/91/646 665/97/651
f 683/81/637 677/80/636 665/97/651
f 683/81/637 665/97/651 653/98/652
f 672/70/627 687/71/628 654/99/653
f 672/70/627 654/99/653 651/67/624
f 654/99/653 687/71/628 682/66/623
f 654/99/653 682/66/623 657/93/648
f 686/69/626 671/68/625 666/94/649
f 686/69/626 666/94/649 678/96/643
f 692/100/654 691/101/655 711/102/656
f 692/100/654 711/102/656 712/103/657
f 690/104/658 689/105/659 708/106/660
f 690/104/658 708/106/660 710/107/661
f 710/107/661 708/106/660 693/108/662
f 710/107/661 693/108/662 695/109/663
f 695/109/663 693/108/662 698/110/664
f 695/109/663 698/110/664 700/111/665
f 716/112/666 701/113/667 700/111/665
f 716/112/666 700/111/665 715/114/668
f 697/115/669 696/116/670 701/113/667
f 697/115/669 701/113/667 702/117/671
f 702/117/671 701/113/667 716/112/666
f 702/117/671 716/112/666 717/118/672
f 691/101/655 690/104/658 710/107/661
f 691/101/655 710/107/661 711/102/656
f 696/116/670 695/109/663 700/111/665
f 696/116/670 700/111/665 701/113/667
f 717/118/672 716/112/666 706/119/673
f 717/118/672 706/119/673 707/120/674
f 715/114/668 713/121/675 704/122/676
f 715/114/668 704/122/676 705/123/677
f 700/111/665 698/110/664 713/121/675
f 700/111/665 713/121/675 715/114/668
f 688/124/659 692/100/654 712/103/657
f 688/124/659 712/103/657 709/125/660
f 694/126/678 697/115/669 702/117/671
f 694/126/678 702/117/671 699/127/679
f 712/103/657 711/102/656 696/116/670
f 712/103/657 696/116/670 697/115/669
f 709/125/660 712/103/657 697/115/669
f 709/125/660 697/115/669 694/126/678
f 714/128/680 717/118/672 707/120/674
f 714/128/680 707/120/674 703/129/681
f 715/114/668 705/123/677 706/119/673
f 715/114/668 706/119/673 716/112/666
f 699/127/679 702/117/671 717/118/672
f 699/127/679 717/118/672 714/128/680
f 695/109/663 696/116/670 711/102/656
f 695/109/663 711/102/656 710/107/661
f 721/63/682 719/64/683 750/65/684
f 721/63/682 750/65/684 751/66/685
f 720/67/686 740/68/687 755/69/688
f 720/67/686 755/69/688 741/70/689
f 721/63/682 751/66/685 756/71/690
f 721/63/682 756/71/690 741/70/689
f 719/64/683 742/72/691 745/73/692
f 719/64/683 745/73/692 737/74/693
f 729/75/694 749/76/684 754/77/695
f 729/75/694 754/77/695 739/78/696
f 731/79/697 746/80/698 752/81/699
f 731/79/697 752/81/699 725/82/700
f 733/83/701 743/84/702 753/85/703
f 733/83/701 753/85/703 724/86/704
f 721/63/682 748/87/705 742/72/691
f 721/63/682 742/72/691 719/64/683
f 737/74/693 745/73/692 746/80/698
f 737/74/693 746/80/698 730/88/697
f 739/78/696 754/77/695 744/84/706
f 739/78/696 744/84/706 732/89/701
f 744/84/706 754/77/695 737/74/693
f 744/84/706 737/74/693 730/88/697
f 753/85/703 743/84/702 731/79/697
f 753/85/703 731/79/697 725/82/700
f 745/73/692 742/72/691 727/90/707
f 745/73/692 727/90/707 738/91/708
f 751/66/685 750/65/684 728/92/709
f 751/66/685 728/92/709 726/93/710
f 742/72/691 748/87/705 736/94/711
f 742/72/691 736/94/711 727/90/707
f 754/77/695 749/76/684 718/95/712
f 754/77/695 718/95/712 737/74/693
f 741/70/689 755/69/688 747/96/713
f 741/70/689 747/96/713 721/63/682
f 746/80/698 745/73/692 738/91/708
f 746/80/698 738/91/708 734/97/714
f 752/81/699 746/80/698 734/97/714
f 752/81/699 734/97/714 722/98/715
f 741/70/689 756/71/690 723/99/716
f 741/70/689 723/99/716 720/67/686
f 723/99/716 756/71/690 751/66/685
f 723/99/716 751/66/685 726/93/710
f 755/69/688 740/68/687 735/94/717
f 755/69/688 735/94/717 747/96/713
f 761/100/718 760/101/719 780/102/720
f 761/100/718 780/102/720 781/103/721
f 759/104/722 758/105/723 777/106/724
f 759/104/722 777/106/724 779/107/725
f 779/107/725 777/106/724 763/108/726
f 779/107/725 763/108/726 764/109/727
f 764/109/727 763/108/726 768/110/728
f 764/109/727 768/110/728 769/111/729
f 785/112/730 770/113/731 769/111/729
f 785/112/730 769/111/729 784/114/732
f 766/115/733 765/116/734 770/113/731
f 766/115/733 770/113/731 771/117/735
f 771/117/735 770/113/731 785/112/730
f 771/117/735 785/112/730 786/118/736
f 760/101/719 759/104/722 779/107/725
f 760/101/719 779/107/725 780/102/720
f 765/116/734 764/109/727 769/111/729
f 765/116/734 769/111/729 770/113/731
f 786/118/736 785/112/730 775/119/737
f 786/118/736 775/119/737 776/120/738
f 784/114/732 783/121/739 773/122/740
f 784/114/732 773/122/740 774/123/741
f 769/111/729 768/110/728 783/121/739
f 769/111/729 783/121/739 784/114/732
f 757/124/742 761/100/718 781/103/721
f 757/124/742 781/103/721 778/125/743
f 762/126/744 766/115/733 771/117/735
f 762/126/744 771/117/735 767/127/745
f 781/103/721 780/102/720 765/116/734
f 781/103/721 765/116/734 766/115/733
f 778/125/743 781/103/721 766/115/733
f 778/125/743 766/115/733 762/126/744
f 782/128/746 786/118/736 776/120/738
f 782/128/746 776/120/738 772/129/747
f 784/114/732 774/123/741 775/119/737
f 784/114/732 775/119/737 785/112/730
f 767/127/745 771/117/735 786/118/736
f 767/127/745 786/118/736 782/128/746
f 764/109/727 765/116/734 780/102/720
f 764/109/727 780/102/720 779/107/725
f 790/63/748 787/64/749 818/65/750
f 790/63/748 818/65/750 820/66/751
f 789/67/752 809/68/753 824/69/754
f 789/67/752 824/69/754 810/70/755
f 790/63/748 820/66/751 825/71/756
f 790/63/748 825/71/756 810/70/755
f 787/64/749 811/72/757 814/73/758
f 787/64/749 814/73/758 806/74/759
f 797/75/760 819/76/750 823/77/761
f 797/75/760 823/77/761 808/78/762
f 799/79/763 815/80/764 821/81/765
f 799/79/763 821/81/765 794/82/766
f 801/83/767 813/84/768 822/85/769
f 801/83/767 822/85/769 793/86/770
f 790/63/748 816/87/771 811/72/757
f 790/63/748 811/72/757 787/64/749
f 806/74/759 814/73/758 815/80/764
f 806/74/759 815/80/764 800/88/763
f 808/78/762 823/77/761 812/84/772
f 808/78/762 812/84/772 802/89/773
f 812/84/772 823/77/761 806/74/759
f 812/84/772 806/74/759 800/88/763
f 822/85/769 813/84/768 799/79/763
f 822/85/769 799/79/763 794/82/766
f 814/73/758 811/72/757 796/90/774
f 814/73/758 796/90/774 807/91/775
f 820/66/751 818/65/750 798/92/776
f 820/66/751 798/92/776 795/93/777
f 811/72/757 816/87/771 804/94/778
f 811/72/757 804/94/778 796/90/774
f 823/77/761 819/76/750 788/95/779
f 823/77/761 788/95/779 806/74/759
f 810/70/755 824/69/754 817/96/780
f 810/70/755 817/96/780 790/63/748
f 815/80/764 814/73/758 807/91/775
f 815/80/764 807/91/775 803/97/781
f 821/81/765 815/80/764 803/97/781
f 821/81/765 803/97/781 791/98/782
f 810/70/755 825/71/756 792/99/783
f 810/70/755 792/99/783 789/67/752
f 792/99/783 825/71/756 820/66/751
f 792/99/783 820/66/751 795/93/777
f 824/69/754 809/68/753 805/94/778
f 824/69/754 805/94/778 817/96/780
f 830/100/784 829/101/785 849/102/786
f 830/100/784 849/102/786 850/103/787
f 828/104/788 826/105/789 847/106/790
f 828/104/788 847/106/790 848/107/791
f 848/107/791 847/106/790 832/108/792
f 848/107/791 832/108/792 833/109/793
f 833/109/793 832/108/792 837/110/794
f 833/109/793 837/110/794 838/111/795
f 854/112/796 839/113/797 838/111/795
f 854/112/796 838/111/795 853/114/798
f 835/115/799 834/116/800 839/113/797
f 835/115/799 839/113/797 840/117/801
f 840/117/801 839/113/797 854/112/796
f 840/117/801 854/112/796 855/118/802
f 829/101/785 828/104/788 848/107/791
f 829/101/785 848/107/791 849/102/786
f 834/116/800 833/109/793 838/111/795
f 834/116/800 838/111/795 839/113/797
f 855/118/802 854/112/796 844/119/803
f 855/118/802 844/119/803 845/120/804
f 853/114/798 851/121/805 841/122/806
f 853/114/798 841/122/806 843/123/807
f 838/111/795 837/110/794 851/121/805
f 838/111/795 851/121/805 853/114/798
f 827/124/808 830/100/784 850/103/787
f 827/124/808 850/103/787 846/125/809
f 831/126/810 835/115/799 840/117/801
f 831/126/810 840/117/801 836/127/811
f 850/103/787 849/102/786 834/116/800
f 850/103/787 834/116/800 835/115/799
f 846/125/809 850/103/787 835/115/799
f 846/125/809 835/115/799 831/126/810
f 852/128/812 855/118/802 845/120/804
f 852/128/812 845/120/804 842/129/806
f 853/114/798 843/123/807 844/119/803
f 853/114/798 844/119/803 854/112/796
f 836/127/811 840/117/801 855/118/802
f 836/127/811 855/118/802 852/128/812
f 833/109/793 834/116/800 849/102/786
f 833/109/793 849/102/786 848/107/791
f 859/63/813 856/64/814 887/65/815
f 859/63/813 887/65/815 889/66/816
f 858/67/817 878/68/818 893/69/819
f 858/67/817 893/69/819 879/70/820
f 859/63/813 889/66/816 894/71/821
f 859/63/813 894/71/821 879/70/820
f 856/64/814 880/72/822 883/73/823
f 856/64/814 883/73/823 875/74/824
f 866/75/825 888/76/815 892/77/826
f 866/75/825 892/77/826 877/78/827
f 868/79/828 884/80/829 890/81/830
f 868/79/828 890/81/830 863/82/831
f 870/83/832 882/84/833 891/85/834
f 870/83/832 891/85/834 862/86/835
f 859/63/813 885/87/836 880/72/822
f 859/63/813 880/72/822 856/64/814
f 875/74/824 883/73/823 884/80/829
f 875/74/824 884/80/829 869/88/837
f 877/78/827 892/77/826 881/84/838
f 877/78/827 881/84/838 871/89/832
f 881/84/838 892/77/826 875/74/824
f 881/84/838 875/74/824 869/88/837
f 891/85/834 882/84/833 868/79/828
f 891/85/834 868/79/828 863/82/831
f 883/73/823 880/72/822 865/90/839
f 883/73/823 865/90/839 876/91/840
f 889/66/816 887/65/815 867/92/841
f 889/66/816 867/92/841 864/93/842
f 880/72/822 885/87/836 873/94/843
f 880/72/822 873/94/843 865/90/839
f 892/77/826 888/76/815 857/95/844
f 892/77/826 857/95/844 875/74/824
f 879/70/820 893/69/819 886/96/845
f 879/70/820 886/96/845 859/63/813
f 884/80/829 883/73/823 876/91/840
f 884/80/829 876/91/840 872/97/846
f 890/81/830 884/80/829 872/97/846
f 890/81/830 872/97/846 860/98/847
f 879/70/820 894/71/821 861/99/848
f 879/70/820 861/99/848 858/67/817
f 861/99/848 894/71/821 889/66/816
f 861/99/848 889/66/816 864/93/842
f 893/69/819 878/68/818 874/94/843
f 893/69/819 874/94/843 886/96/845
f 899/100/849 898/101/850 918/102/851
f 899/100/849 918/102/851 919/103/852
f 897/104/853 895/105/854 915/106/855
f 897/104/853 915/106/855 917/107/856
f 917/107/856 915/106/855 900/108/857
f 917/107/856 900/108/857 902/109/858
f 902/109/858 900/108/857 905/110/859
f 902/109/858 905/110/859 907/111/860
f 923/112/861 908/113/862 907/111/860
f 923/112/861 907/111/860 922/114/863
f 904/115/864 903/116/865 908/113/862
f 904/115/864 908/113/862 909/117/866
f 909/117/866 908/113/862 923/112/861
f 909/117/866 923/112/861 924/118/867
f 898/101/850 897/104/853 917/107/856
f 898/101/850 917/107/856 918/102/851
f 903/116/865 902/109/858 907/111/860
f 903/116/865 907/111/860 908/113/862
f 924/118/867 923/112/861 913/119/868
f 924/118/867 913/119/868 914/120/869
f 922/114/863 920/121/870 910/122/871
f 922/114/863 910/122/871 912/123/872
f 907/111/860 905/110/859 920/121/870
f 907/111/860 920/121/870 922/114/863
f 896/124/873 899/100/849 919/103/852
f 896/124/873 919/103/852 916/125/855
f 901/126/874 904/115/864 909/117/866
f 901/126/874 909/117/866 906/127/875
f 919/103/852 918/102/851 903/116/865
f 919/103/852 903/116/865 904/115/864
f 916/125/855 919/103/852 904/115/864
f 916/125/855 904/115/864 901/126/874
f 921/128/876 924/118/867 914/120/869
f 921/128/876 914/120/869 911/129/877
f 922/114/863 912/123/872 913/119/868
f 922/114/863 913/119/868 923/112/861
f 906/127/875 909/117/866 924/118/867
f 906/127/875 924/118/867 921/128/876
f 902/109/858 903/116/865 918/102/851
f 902/109/858 918/102/851 917/107/856
