# Blender 5.0.1
# www.blender.org
mtllib shrub2.mtl
o leaves_gbushy_0
v 0.097272 0.029554 -0.054667
v 0.111175 -0.000932 -0.145855
v 0.012935 0.003980 -0.163469
v -0.000968 0.034465 -0.072281
v -0.073699 0.050482 -0.031054
v -0.154970 0.009830 -0.058313
v -0.163186 -0.018736 0.034547
v -0.081915 0.021916 0.061806
v -0.085966 0.033640 -0.042427
v -0.181861 0.014718 -0.027277
v -0.164220 0.007927 0.070778
v -0.068324 0.026849 0.055628
v -0.098982 0.043120 -0.043200
v -0.184475 0.073360 -0.008222
v -0.150438 0.065892 0.085331
v -0.064946 0.035652 0.050353
v 0.090553 0.041726 0.087609
v 0.132334 0.061819 0.000394
v 0.042500 0.059638 -0.043449
v 0.000719 0.039545 0.043766
v 0.033029 0.041829 0.106005
v 0.099316 -0.013716 0.131593
v 0.139590 -0.010007 0.040182
v 0.073302 0.045538 0.014594
v 0.027889 0.049508 -0.113674
v -0.026061 0.097438 -0.172008
v -0.106496 0.084266 -0.114984
v -0.052547 0.036337 -0.056650
v 0.022960 0.054071 -0.089563
v 0.026321 0.005688 -0.168507
v -0.064568 -0.021724 -0.145415
v -0.067929 0.026658 -0.066472
v -0.074643 0.023896 0.097572
v -0.019020 -0.027675 0.148933
v 0.062994 -0.001480 0.102322
v 0.007370 0.050091 0.050961
v -0.059231 0.008891 0.014918
v -0.075868 0.080141 -0.024788
v -0.057918 0.113585 0.063997
v -0.041281 0.042335 0.103704
v 0.105239 0.090825 -0.034721
v 0.139790 0.040019 -0.104955
v 0.049025 0.034639 -0.146551
v 0.014474 0.085445 -0.076317
v 0.146843 0.075256 -0.082994
v 0.107236 0.044819 -0.169281
v 0.026446 0.052730 -0.139478
v 0.066052 0.083167 -0.053191
v -0.025339 0.041526 -0.023391
v -0.022925 0.064300 -0.119108
v -0.120485 0.048339 -0.127663
v -0.122899 0.025565 -0.031946
v 0.018216 0.049275 0.117665
v -0.007539 0.120514 0.083132
v 0.017749 0.098254 -0.009418
v 0.043504 0.027015 0.025116
v 0.001543 0.065571 0.128441
v 0.060171 0.028596 0.199552
v 0.138685 0.032954 0.138046
v 0.080057 0.069929 0.066935
v 0.037859 0.059795 -0.122259
v -0.051677 0.055550 -0.166466
v -0.094167 0.040230 -0.078047
v -0.004630 0.044475 -0.033840
v 0.051999 0.030652 -0.011431
v 0.145382 0.003581 -0.021613
v 0.129784 -0.007011 -0.119474
v 0.036402 0.020061 -0.109292
v 0.072887 0.048979 -0.054598
v 0.116636 0.023063 -0.138313
v 0.027999 0.023017 -0.184612
v -0.015750 0.048933 -0.100897
v -0.025433 0.051434 0.031567
v -0.035910 0.041869 -0.067142
v -0.134391 0.031954 -0.055147
v -0.123913 0.041518 0.043562
v 0.072684 0.036363 0.064634
v 0.150518 -0.012761 0.072955
v 0.161047 -0.012862 -0.026489
v 0.083212 0.036262 -0.034810
v -0.036024 0.063411 -0.080386
v 0.049657 0.024223 -0.094325
v 0.010651 -0.038993 -0.048879
v -0.075030 0.000195 -0.034940
v -0.009099 0.018148 0.031655
v -0.074956 0.063880 -0.016372
v -0.104169 0.094772 0.070893
v -0.038312 0.049040 0.118920
v -0.058239 0.034969 0.077142
v -0.075572 0.102634 0.125640
v 0.022913 0.114316 0.134682
v 0.040246 0.046651 0.086184
v 0.064303 0.052586 -0.001543
v 0.144505 0.009898 0.023820
v 0.144663 -0.023470 -0.066807
v 0.064461 0.019218 -0.092170
v -0.029780 0.051237 -0.038590
v -0.054835 0.052730 -0.135382
v -0.151312 0.045801 -0.110580
v -0.126257 0.044308 -0.013788
v -0.081477 0.017393 -0.019412
v -0.139831 0.081278 -0.012689
v -0.109021 0.092647 0.081350
v -0.050667 0.028762 0.074627
v -0.071942 0.028961 -0.049114
v -0.171008 0.030561 -0.062601
v -0.184464 0.031798 0.036477
v -0.085399 0.030199 0.049964
v -0.122923 0.067597 -0.001722
v -0.082465 0.089084 0.085583
v 0.004667 0.057142 0.057822
v -0.035792 0.035654 -0.029484
v 0.020842 0.045859 0.023340
v -0.052597 0.058358 0.089340
v 0.011002 0.044223 0.164404
v 0.084441 0.031725 0.098404
v 0.028972 0.032517 0.088918
v 0.070775 0.088673 0.145415
v 0.131574 0.107856 0.069831
v 0.089771 0.051699 0.013334
v 0.064034 0.025787 -0.081968
v 0.054065 0.069195 -0.164895
v -0.045181 0.069571 -0.152649
v -0.035213 0.026163 -0.069722
v 0.029078 0.055037 -0.062266
v 0.093365 0.002341 -0.099828
v 0.017058 -0.038345 -0.138826
v -0.047229 0.014352 -0.101264
v -0.047122 0.045458 0.001615
v -0.136143 0.047834 -0.043840
v -0.180258 0.062988 0.043826
v -0.091237 0.060612 0.089282
v -0.087343 0.038506 0.069837
v -0.074843 0.116771 0.073549
v 0.024316 0.106815 0.076480
v 0.011815 0.028550 0.072768
v -0.088725 0.028104 0.038217
v -0.138856 0.006031 0.120101
v -0.054998 0.012048 0.174043
v -0.004867 0.034121 0.092159
v 0.040651 0.046580 0.026355
v 0.090532 0.017279 0.104676
v 0.168714 0.001701 0.045531
v 0.118834 0.031002 -0.032789
v -0.023251 0.056452 -0.076361
v -0.007806 -0.009962 -0.128158
v -0.089900 -0.041616 -0.087506
v -0.105345 0.024799 -0.035709
v 0.032889 0.020082 0.119883
v 0.117183 0.025387 0.066504
v 0.064552 0.049754 -0.012724
v -0.019742 0.044450 0.040655
v -0.029821 0.053185 0.075483
v -0.020556 0.054404 0.166979
v 0.076987 0.072736 0.155307
v 0.067722 0.071518 0.063811
v 0.064485 0.053670 -0.107808
v 0.004693 0.109319 -0.145957
v -0.068940 0.086031 -0.085065
v -0.009148 0.030383 -0.046916
v 0.068276 0.041269 -0.000381
v 0.159233 0.008560 -0.003535
v 0.151004 0.000255 -0.102639
v 0.060047 0.032965 -0.099485
v 0.075803 0.016296 -0.077028
v 0.020869 -0.037701 -0.125020
v -0.059610 0.008687 -0.116657
v -0.004675 0.062684 -0.068665
v 0.102922 0.025322 -0.051730
v 0.082580 -0.051667 -0.060340
v -0.014893 -0.035088 -0.067955
v 0.005449 0.041901 -0.059345
v -0.049664 0.054758 -0.018694
v -0.057543 0.020943 -0.108710
v -0.111439 -0.037577 -0.068715
v -0.103561 -0.003762 0.021301
v -0.113645 0.058354 0.007131
v -0.194286 0.011957 0.043753
v -0.154940 0.015990 0.135583
v -0.074299 0.062388 0.098961
v -0.028339 0.025331 -0.032471
v -0.070631 0.053113 -0.115974
v -0.160705 0.048175 -0.072991
v -0.118413 0.020393 0.010513
v 0.041610 0.050103 0.092540
v 0.076870 -0.019451 0.124054
v 0.123837 -0.029291 0.036655
v 0.088577 0.040264 0.005140
v 0.071676 0.098083 0.095171
v 0.146374 0.058808 0.148814
v 0.191051 0.028770 0.064600
v 0.116352 0.068045 0.010956
v 0.020804 0.039493 0.027490
v 0.003745 0.048961 0.125291
v 0.100987 0.063226 0.140037
v 0.118046 0.053758 0.042235
v 0.023622 0.032819 -0.094331
v 0.004386 -0.031100 -0.149769
v -0.091498 -0.028350 -0.121587
v -0.072262 0.035569 -0.066149
v 0.005979 0.044997 -0.109634
v 0.048009 -0.024331 -0.086822
v -0.027678 -0.040171 -0.024623
v -0.069708 0.029157 -0.047435
v -0.031174 0.051346 0.074424
v 0.032746 0.079536 0.090673
v 0.061124 0.063249 0.024386
v -0.002796 0.035059 0.008137
v 0.002120 0.039302 0.040082
v -0.078220 0.041344 -0.019406
v -0.137736 0.041024 0.060954
v -0.057396 0.038982 0.120442
v 0.020210 0.038730 0.017592
v 0.072568 0.068727 0.055535
v 0.109825 0.078562 -0.008353
v 0.057467 0.048566 -0.046297
v 0.098973 0.093960 0.017488
v 0.177850 0.058097 -0.025710
v 0.122896 0.033162 -0.105448
v 0.044019 0.069025 -0.062250
v -0.119769 0.051299 -0.042313
v -0.189995 0.075446 0.021971
v -0.124942 0.068257 0.097371
v -0.054715 0.044110 0.033087
v -0.035509 0.012117 -0.043269
v 0.032427 0.052799 -0.095506
v -0.036150 0.107994 -0.115711
v -0.104086 0.067311 -0.063474
v -0.113605 0.047636 -0.031812
v -0.144022 0.122168 -0.019155
v -0.082335 0.129586 0.058989
v -0.051919 0.055053 0.046332
v -0.003763 0.072323 0.067598
v -0.060912 0.007953 0.058405
v 0.016366 -0.037239 0.085803
v 0.073516 0.027131 0.094996
v 0.003611 0.049581 0.084912
v 0.018736 0.014703 0.173337
v 0.113398 -0.000522 0.147507
v 0.098273 0.034356 0.059082
v 0.026881 0.002278 -0.117585
v -0.036781 -0.040446 -0.062650
v -0.050513 0.021169 -0.001665
v 0.013149 0.063893 -0.056601
v 0.065059 0.024524 -0.051334
v 0.088249 0.100361 -0.036077
v 0.022467 0.121708 -0.106373
v -0.000723 0.045871 -0.121630
v -0.113481 0.032746 0.023661
v -0.171651 0.001770 0.094910
v -0.095220 0.004616 0.159295
v -0.037050 0.035591 0.088045
v -0.123349 0.020587 0.011790
v -0.161847 -0.017248 0.090661
v -0.080715 0.001034 0.144338
v -0.042217 0.038869 0.065466
v 0.135163 0.022650 0.011747
v 0.114946 -0.025239 -0.065136
v 0.035195 0.018780 -0.088165
v 0.055411 0.066668 -0.011281
v 0.077865 0.028777 0.069258
v 0.135499 -0.035457 0.076810
v 0.162761 -0.027222 -0.018835
v 0.105127 0.037012 -0.026387
v 0.122584 0.039093 0.048161
v 0.142344 0.108324 0.004368
v 0.080446 0.089790 -0.070582
v 0.060686 0.020558 -0.026789
v -0.019417 0.049881 -0.082201
v -0.089829 0.049963 -0.108032
v -0.115658 0.049031 -0.037630
v -0.045247 0.048950 -0.011799
v -0.028397 0.041638 -0.049468
v 0.052198 0.054387 -0.106420
v -0.006203 0.059095 -0.187375
v -0.086798 0.046347 -0.130423
v -0.043493 0.008246 0.075218
v -0.078898 0.067786 0.019922
v -0.030713 0.119401 0.078258
v 0.004692 0.059861 0.133553
v -0.036330 0.118965 0.078241
v -0.038929 0.081856 0.153726
v 0.059814 0.069037 0.157012
v 0.062413 0.106146 0.081527
v 0.069798 0.050688 -0.011664
v 0.116913 0.026045 -0.060965
v 0.063489 0.027952 -0.113549
v 0.016374 0.052596 -0.064248
v 0.076300 0.073337 -0.003368
v 0.162893 0.030966 -0.022137
v 0.131333 0.011069 -0.114549
v 0.044740 0.053440 -0.095779
v -0.079548 0.095417 -0.006457
v -0.155891 0.055415 -0.052929
v -0.202472 0.044847 0.034794
v -0.126129 0.084849 0.081266
v -0.085994 0.088111 -0.010964
v -0.101114 0.028228 -0.074341
v -0.154318 -0.009498 -0.004446
v -0.139198 0.050385 0.058932
v -0.061065 0.044643 -0.048836
v -0.115827 -0.008014 -0.109258
v -0.179825 -0.026591 -0.034704
v -0.125063 0.026065 0.025718
v 0.060637 0.117796 0.071908
v 0.127718 0.082569 0.130937
v 0.181427 0.061649 0.050535
v 0.114345 0.096876 -0.008495
v 0.067949 0.087305 0.128535
v 0.133204 0.028466 0.142174
v 0.154275 0.028906 0.044421
v 0.089020 0.087746 0.030781
v 0.125788 0.079012 0.092630
v 0.115233 0.132765 0.020161
v 0.064535 0.080366 -0.034826
v 0.075090 0.026613 0.037643
v 0.034091 0.083869 0.060504
v -0.049844 0.064210 0.108821
v 0.004471 0.036651 0.185183
v 0.088407 0.056310 0.136865
v 0.071633 0.089869 0.059971
v 0.088003 0.081429 0.157915
v 0.169563 0.026546 0.139772
v 0.153193 0.034986 0.041827
v 0.047268 0.127781 0.073289
v 0.079802 0.132836 0.149531
v 0.140191 0.058627 0.121943
v 0.107657 0.053571 0.045702
v 0.026323 0.054198 -0.108346
v 0.054042 -0.019438 -0.131373
v -0.041944 -0.039817 -0.142338
v -0.069663 0.033819 -0.119311
v 0.002869 0.096186 -0.164989
v -0.094944 0.102517 -0.145800
v -0.079576 0.075443 -0.053131
v 0.018237 0.069112 -0.072320
v 0.021906 0.057457 -0.103345
v -0.025337 0.022697 -0.179694
v -0.110134 0.021978 -0.126698
v -0.062891 0.056737 -0.050349
v 0.062551 0.068353 -0.136416
v 0.038909 -0.006658 -0.116132
v -0.044382 0.017473 -0.070000
v -0.020740 0.092485 -0.090285
v -0.035481 0.049134 -0.154391
v -0.084616 0.116437 -0.136597
v -0.080212 0.102250 -0.038324
v -0.031077 0.034948 -0.056118
v -0.056768 0.107474 0.072349
v -0.023667 0.088989 -0.019063
v -0.093120 0.032449 -0.025864
v -0.126221 0.050934 0.065547
v -0.065831 0.100237 0.070897
v -0.105775 0.043868 0.142277
v -0.021653 0.052672 0.194790
v 0.018291 0.109041 0.123410
v -0.121684 0.059672 0.097370
v -0.080601 -0.012222 0.093180
v 0.009027 0.020291 0.076732
v -0.032057 0.092185 0.080922
v -0.091333 0.129808 0.068835
v -0.116537 0.081838 0.151137
v -0.026491 0.101155 0.190100
v -0.001286 0.149125 0.107798
v 0.079551 0.105429 0.034421
v 0.079751 0.052542 0.108660
v 0.151155 0.011590 0.061649
v 0.150956 0.064477 -0.012589
v 0.106544 0.149290 0.013346
v 0.195078 0.103934 0.022648
v 0.192385 0.078717 -0.074074
v 0.103852 0.124073 -0.083375
v 0.183537 0.035612 -0.040563
v 0.116207 0.021250 -0.088988
v 0.060084 0.094863 -0.060342
v 0.127414 0.109226 -0.011918
v 0.119005 0.079993 -0.091191
v 0.062025 0.135222 -0.048083
v -0.011947 0.118790 -0.112074
v 0.045033 0.063561 -0.155183
v -0.007437 0.103477 -0.012977
v 0.007371 0.062645 -0.052344
v -0.054606 0.063385 -0.076888
v -0.069414 0.104216 -0.037522
v -0.097392 0.138021 -0.021270
v -0.112423 0.085104 0.025898
v -0.045089 0.055546 -0.005858
v -0.030057 0.108463 -0.053026
v -0.100712 0.142738 -0.072273
v -0.189326 0.107130 -0.042619
v -0.159803 0.112789 0.052209
v -0.071189 0.148396 0.022556
v -0.048430 0.143555 0.083705
v -0.061238 0.095199 0.161702
v 0.037443 0.095180 0.177888
v 0.050251 0.143537 0.099892
v 0.098658 0.141382 -0.017881
v 0.175430 0.109961 -0.069895
v 0.123333 0.117696 -0.154537
v 0.046562 0.149117 -0.102522
v 0.049994 0.168079 0.080109
v 0.149963 0.166499 0.081579
v 0.151025 0.151487 -0.016591
v 0.051056 0.153068 -0.018060
v -0.024422 0.141868 0.120239
v 0.020438 0.104279 0.201033
v 0.103770 0.089426 0.147791
v 0.058909 0.127015 0.066997
v 0.084446 0.150385 0.039516
v 0.169762 0.139769 -0.010886
v 0.119227 0.141865 -0.097136
v 0.033911 0.152481 -0.046735
v -0.067256 0.161600 -0.015411
v -0.071470 0.167068 0.059150
v -0.012853 0.130625 0.066752
v -0.008639 0.125157 -0.007809
v -0.094515 0.117247 -0.111959
v -0.010512 0.151810 -0.088561
v 0.038867 0.126620 -0.155639
v -0.045137 0.092057 -0.179036
v 0.006492 0.150924 -0.018119
v 0.000568 0.145437 -0.092561
v -0.072858 0.134756 -0.085454
v -0.066934 0.140243 -0.011012
v -0.023667 0.170223 -0.018708
v -0.036627 0.123302 -0.098074
v -0.132088 0.112117 -0.071874
v -0.119128 0.159039 0.007492
v -0.083453 0.078825 -0.055456
v -0.135548 0.042742 -0.084120
v -0.163952 0.034341 -0.015527
v -0.111856 0.070424 0.013137
v -0.153220 0.051933 -0.077344
v -0.168916 -0.023087 -0.050475
v -0.134430 -0.007126 0.041187
v -0.118734 0.067894 0.014318
v -0.145828 0.108147 -0.060966
v -0.207493 0.086593 -0.000912
v -0.137671 0.076205 0.069827
v -0.076007 0.097759 0.009773
v 0.072845 0.165879 0.068263
v 0.150134 0.141155 0.123330
v 0.199159 0.119832 0.039982
v 0.121870 0.144556 -0.015084
v 0.080016 0.107901 -0.012392
v 0.082837 0.082841 0.082393
v 0.145969 0.141322 0.105327
v 0.143149 0.166382 0.010541
v 0.124059 0.138118 0.064591
v 0.199948 0.078821 0.076889
v 0.209351 0.070404 -0.022311
v 0.133463 0.129700 -0.034609
v 0.127430 0.165072 0.036214
v 0.181404 0.139706 -0.039115
v 0.114090 0.133986 -0.100471
v 0.060117 0.159352 -0.025143
v -0.041332 0.120072 -0.014743
v -0.094729 0.129916 0.036426
v -0.057962 0.178068 0.059928
v -0.004566 0.168225 0.008759
v -0.112888 0.170654 0.029515
v -0.142162 0.142718 0.120882
v -0.048784 0.132782 0.148616
v -0.019510 0.160718 0.057250
v -0.035211 0.140216 -0.056932
v -0.101034 0.116215 -0.076117
v -0.122332 0.116796 -0.004208
v -0.056510 0.140796 0.014977
v -0.023971 0.163801 -0.038533
v -0.050335 0.104675 -0.099319
v -0.146616 0.117760 -0.077985
v -0.120253 0.176886 -0.017199
v 0.027987 0.126187 0.150542
v 0.121454 0.097635 0.171607
v 0.149418 0.119940 0.079049
v 0.055950 0.148492 0.057984
v 0.071734 0.086435 0.119682
v 0.171104 0.083271 0.128952
v 0.180908 0.126117 0.039137
v 0.081538 0.129281 0.029867
v 0.026939 0.127125 -0.012883
v 0.007699 0.085310 0.036604
v 0.061544 0.104126 0.083053
v 0.080785 0.145941 0.033566
v 0.144416 0.099353 -0.087511
v 0.070727 0.108134 -0.153995
v 0.013845 0.123321 -0.096187
v 0.087534 0.114539 -0.029703
v 0.090348 0.102765 0.040336
v 0.138545 0.076494 0.081754
v 0.175266 0.087704 0.024615
v 0.127069 0.113976 -0.016803
v 0.086397 0.156168 0.056535
v 0.090762 0.077601 0.047874
v 0.099126 0.084708 -0.051368
v 0.094762 0.163275 -0.042707
v 0.091035 0.152915 0.046328
v 0.182874 0.122136 0.053063
v 0.192699 0.126858 -0.046273
v 0.100860 0.157637 -0.053008
v 0.159597 0.104786 -0.041677
v 0.128919 0.086328 -0.134514
v 0.042331 0.118338 -0.115876
v 0.073009 0.136795 -0.023039
v 0.125880 0.145683 0.012915
v 0.192534 0.108712 -0.045082
v 0.127560 0.110008 -0.121080
v 0.060905 0.146978 -0.063082
v 0.100585 0.160598 0.017465
v 0.145297 0.090711 0.004705
v 0.113381 0.088765 -0.090033
v 0.068669 0.158652 -0.077273
v -0.097371 0.118038 -0.035847
v -0.162534 0.131449 -0.002829
v -0.130185 0.126107 0.064497
v -0.065022 0.112697 0.031479
v -0.083037 0.168739 0.005131
v -0.091311 0.134613 -0.088287
v -0.174162 0.085359 -0.062502
v -0.165887 0.119485 0.030916
v -0.108006 0.116451 0.010909
v -0.096343 0.061188 0.035156
v -0.022555 0.071593 0.037723
v -0.034218 0.126857 0.013476
v -0.113432 0.166469 -0.019236
v -0.019168 0.179698 -0.048107
v 0.014096 0.148205 0.037344
v -0.080167 0.134975 0.066214
v -0.138366 0.121383 -0.021712
v -0.201377 0.086786 0.047696
v -0.135949 0.111176 0.119278
v -0.072938 0.145773 0.049871
v -0.071751 0.155391 -0.008196
v -0.094405 0.183422 0.053860
v -0.050780 0.148129 0.095368
v -0.028126 0.120098 0.033313
v -0.083298 0.162590 -0.021527
v -0.156515 0.142293 0.041113
v -0.095656 0.125732 0.114165
v -0.022439 0.146028 0.051526
v -0.076040 0.132953 0.024568
v -0.086552 0.078231 0.051193
v -0.014465 0.075809 0.071664
v -0.003954 0.130531 0.045039
v -0.039936 0.146926 0.016400
v -0.117206 0.111801 -0.028871
v -0.173528 0.123771 0.052357
v -0.096258 0.158896 0.097628
v -0.083267 0.147269 0.114634
v 0.003249 0.130671 0.160164
v 0.048970 0.127330 0.071329
v -0.037545 0.143928 0.025799
v -0.072475 0.153078 0.068825
v -0.042137 0.181854 -0.019214
v 0.051700 0.185507 0.015038
v 0.021363 0.156731 0.103077
v -0.020993 0.165756 0.069604
v -0.013473 0.139277 0.164558
v 0.078116 0.102997 0.147755
v 0.070595 0.129475 0.052802
v -0.059344 0.151452 0.062492
v -0.112650 0.121358 0.138024
v -0.028427 0.109198 0.189688
v 0.024879 0.139292 0.114156
v -0.181137 0.069009 0.001620
v -0.185909 0.037726 0.096273
v -0.094246 0.063462 0.107510
v -0.089474 0.094745 0.012858
v -0.131274 0.061887 -0.095786
v -0.081159 0.127614 -0.072210
v -0.150872 0.145535 -0.004205
v -0.200986 0.079808 -0.027781
v -0.014336 0.160397 -0.068709
v -0.013609 0.103258 -0.137703
v -0.112056 0.093295 -0.125499
v -0.112783 0.150435 -0.056506
v -0.050978 0.098863 -0.105586
v -0.146341 0.069479 -0.101860
v -0.145739 0.079764 -0.002413
v -0.050375 0.109148 -0.006139
v -0.082807 0.126196 0.005336
v -0.168402 0.108598 -0.042679
v -0.207605 0.092997 0.039136
v -0.122010 0.110596 0.087152
v -0.098854 0.135441 -0.055013
v -0.140861 0.128655 0.006522
v -0.080687 0.109610 0.044231
v -0.038679 0.116396 -0.017303
v -0.056443 0.165194 -0.088981
v -0.108797 0.126077 -0.147255
v -0.161363 0.093262 -0.069450
v -0.109010 0.132379 -0.011177
v -0.032257 0.131771 -0.052466
v -0.007870 0.075876 -0.048398
v -0.076776 0.058008 -0.029304
v -0.101163 0.113903 -0.033373
v -0.171155 0.038360 -0.046214
v -0.194935 0.035392 0.049351
v -0.126535 0.086049 0.076041
v -0.102755 0.089017 -0.019524
v -0.020369 0.110203 -0.024405
v 0.047773 0.118194 0.005244
v 0.055140 0.168565 -0.033476
v -0.013003 0.160573 -0.063125
v 0.004076 0.132397 -0.068696
v -0.044776 0.140299 -0.124716
v -0.101266 0.140612 -0.075383
v -0.052414 0.132711 -0.019363
v -0.030884 0.143488 -0.122717
v -0.112319 0.105195 -0.153946
v -0.150370 0.093599 -0.066010
v -0.068935 0.131891 -0.034781
v -0.006375 0.173268 -0.035657
v 0.076078 0.146398 -0.084769
v 0.020651 0.124240 -0.162173
v -0.061803 0.151109 -0.113062
v -0.116368 0.103590 0.035330
v -0.105922 0.058956 0.083485
v -0.032416 0.070656 0.084942
v -0.042862 0.115290 0.036787
v -0.134449 0.129382 0.018228
v -0.177593 0.060865 0.042820
v -0.126897 0.060251 0.129014
v -0.083754 0.128768 0.104422
v -0.158250 0.113322 0.025272
v -0.149342 0.112276 0.118603
v -0.056998 0.143696 0.118348
v -0.065906 0.144742 0.025017
v -0.065988 0.154586 0.046923
v -0.165300 0.143129 0.049308
v -0.159665 0.111125 0.137501
v -0.060354 0.122582 0.135116
v 0.076997 0.132002 0.025819
v 0.122033 0.109687 -0.014394
v 0.073053 0.092946 -0.054341
v 0.028017 0.115262 -0.014128
v 0.061755 0.141583 0.048500
v 0.101545 0.084683 0.061370
v 0.126981 0.084582 -0.017986
v 0.087192 0.141482 -0.030856
v 0.060458 0.166677 0.039998
v 0.064641 0.095932 0.084169
v 0.140153 0.075319 0.024035
v 0.135970 0.146063 -0.020135
v -0.009668 0.111508 0.003788
v 0.034297 0.143281 -0.026070
v -0.011277 0.181670 -0.027621
v -0.055242 0.149898 0.002237
v -0.002598 0.162089 -0.028615
v -0.025094 0.107409 -0.069115
v -0.081247 0.094420 -0.009781
v -0.058751 0.149100 0.030719
v -0.069549 0.176401 -0.037580
v -0.149792 0.154101 0.014986
v -0.093690 0.149613 0.097571
v -0.013447 0.171913 0.045005
v -0.012810 0.159004 0.079335
v -0.106211 0.132135 0.065157
v -0.118069 0.105230 0.156363
v -0.024669 0.132099 0.170541
v -0.061437 0.153812 -0.016829
v -0.155915 0.127998 -0.014688
v -0.160723 0.144016 0.083113
v -0.066245 0.169830 0.080973
v -0.115946 0.162786 -0.024545
v -0.193711 0.111275 0.002682
v -0.158006 0.105040 0.095820
v -0.080241 0.156550 0.068593
vn 0.1015 0.9481 -0.3015
vn -0.4937 0.8425 0.2155
vn -0.1774 0.9791 0.0997
vn 0.3185 0.9471 -0.0403
vn -0.1085 0.9788 0.1735
vn 0.5527 0.7865 0.2754
vn 0.2130 0.8423 0.4951
vn -0.3639 0.7872 -0.4979
vn 0.1185 0.7619 0.6367
vn 0.9679 0.0967 -0.2321
vn 0.1860 0.8373 -0.5142
vn -0.0261 0.9464 -0.3219
vn -0.1764 0.9586 0.2236
vn -0.9040 -0.3999 -0.1508
vn 0.1981 0.9269 0.3186
vn -0.1061 0.9871 0.1201
vn 0.2609 0.9544 -0.1449
vn 0.1221 0.9644 -0.2347
vn -0.1100 0.9904 -0.0843
vn 0.5287 0.8470 0.0551
vn -0.3263 -0.4107 -0.8514
vn 0.6061 0.7916 -0.0773
vn 0.0054 0.5835 -0.8121
vn 0.5199 0.8019 -0.2943
vn -0.0635 0.9975 0.0318
vn 0.6870 0.6596 -0.3048
vn 0.0175 0.9998 -0.0101
vn 0.2298 0.9150 -0.3317
vn 0.1892 0.9816 0.0246
vn -0.6006 0.7433 -0.2945
vn 0.0598 0.8873 0.4573
vn 0.0616 0.6281 -0.7757
vn 0.0904 0.9880 -0.1253
vn 0.0337 0.0420 -0.9985
vn -0.1711 0.9726 0.1575
vn 0.3057 0.9392 0.1567
vn -0.5291 0.4419 -0.7244
vn 0.0897 0.9671 0.2378
vn -0.1841 0.9829 0.0055
vn 0.2831 0.7303 0.6217
vn 0.3332 0.9368 -0.1062
vn 0.2131 0.5189 -0.8278
vn 0.0922 0.0866 -0.9920
vn -0.7782 0.6073 -0.1600
vn -0.4410 0.8849 0.1501
vn 0.0801 0.9573 0.2779
vn 0.7628 0.5446 0.3486
vn 0.4921 0.8691 -0.0489
vn -0.1267 0.9850 -0.1174
vn -0.1901 0.6753 -0.7126
vn -0.4742 -0.5210 -0.7097
vn -0.3029 0.8873 -0.3477
vn 0.0145 0.9998 0.0147
vn -0.4308 0.8953 -0.1134
vn 0.1841 0.8948 -0.4067
vn 0.2328 0.9664 -0.1087
vn 0.2436 0.5857 0.7730
vn 0.7050 0.3885 -0.5934
vn -0.2754 0.1081 0.9552
vn 0.2353 0.9172 0.3215
vn -0.7374 0.3850 -0.5550
vn -0.7157 0.0793 0.6939
vn -0.2264 0.9472 0.2269
vn -0.3675 0.8957 0.2503
vn 0.5202 0.6568 -0.5459
vn 0.7039 0.6619 0.2576
vn -0.7227 0.5049 0.4720
vn -0.0033 0.9999 0.0120
vn -0.0768 0.9906 0.1130
vn 0.8007 -0.0758 -0.5943
vn 0.1010 0.8914 0.4417
vn 0.2556 0.9401 -0.2256
vn 0.3619 0.8782 -0.3127
vn -0.4090 0.9061 -0.1080
vn -0.7877 0.5305 -0.3133
vn -0.5201 0.8190 -0.2424
vn 0.4284 0.9021 0.0515
vn 0.6462 0.7497 0.1427
vn -0.8317 0.3810 0.4038
vn -0.0176 0.9364 0.3505
vn 0.5549 0.8316 -0.0211
vn 0.6686 0.6666 -0.3295
vn 0.0420 0.3126 -0.9490
vn 0.1133 0.9586 0.2613
vn -0.1970 0.9325 -0.3026
vn -0.4998 -0.0758 -0.8628
vn 0.8127 0.5808 0.0474
vn -0.5688 0.7415 -0.3559
vn -0.3629 0.8193 0.4439
vn 0.1670 0.0380 0.9852
vn -0.3510 0.8518 0.3890
vn 0.6471 0.6218 0.4412
vn 0.4626 0.8547 -0.2357
vn 0.3919 0.5775 -0.7162
vn -0.3161 -0.7646 0.5617
vn 0.2639 0.7174 -0.6448
vn 0.5369 0.4712 0.6998
vn -0.3563 0.9327 0.0553
vn -0.0843 0.8530 0.5150
vn 0.3137 0.9435 -0.1069
vn 0.0178 0.9884 -0.1509
vn 0.3209 0.9143 0.2472
vn 0.1025 0.9941 -0.0359
vn 0.5307 0.8469 -0.0321
vn -0.2166 0.8507 -0.4789
vn -0.1495 0.9869 -0.0609
vn -0.2284 0.8539 -0.4676
vn -0.5229 0.8448 -0.1131
vn -0.9102 0.2947 0.2911
vn -0.1016 0.9649 0.2420
vn 0.3333 0.9418 -0.0449
vn -0.7040 0.6812 0.2010
vn 0.6165 0.7873 -0.0084
vn 0.1295 0.9641 -0.2319
vn -0.4613 0.6480 -0.6060
vn 0.0136 0.9550 0.2963
vn -0.3147 0.9438 -0.1008
vn -0.0528 0.7272 -0.6844
vn 0.2190 0.9314 0.2906
vn -0.0113 0.9030 0.4295
vn -0.5806 0.7191 0.3818
vn 0.1849 0.9799 -0.0755
vn 0.2230 0.9195 0.3237
vn 0.9951 0.0457 0.0871
vn 0.3119 0.9471 0.0759
vn 0.2806 0.9194 -0.2755
vn 0.3012 0.9224 -0.2418
vn 0.7859 0.5532 -0.2761
vn 0.1940 0.9809 -0.0154
vn -0.5505 0.7987 -0.2430
vn -0.0863 0.3850 0.9189
vn 0.0230 -0.9351 -0.3536
vn -0.4173 0.9059 0.0727
vn 0.6744 0.7335 -0.0851
vn -0.0469 0.9650 0.2579
vn -0.2280 0.4611 0.8576
vn -0.2414 0.9218 -0.3032
vn 0.1641 0.9853 0.0474
vn 0.1342 -0.9546 -0.2658
vn 0.3937 0.8930 0.2178
vn -0.0658 0.9421 0.3289
vn -0.2914 0.9126 0.2869
vn 0.4772 -0.5956 0.6461
vn -0.1551 0.7600 -0.6311
vn -0.2965 0.9501 -0.0965
vn -0.2386 0.9686 0.0704
vn 0.1665 0.9612 0.2197
vn -0.5699 0.8208 -0.0389
vn -0.2228 -0.1671 -0.9604
vn -0.5620 0.8192 -0.1144
vn -0.3776 0.5984 0.7066
vn 0.0727 0.9944 0.0769
vn -0.4072 0.9116 -0.0560
vn 0.1018 0.9347 -0.3405
vn -0.1272 0.7135 0.6890
vn -0.6961 0.5868 0.4136
vn -0.3217 0.9459 0.0413
vn -0.0994 0.9333 0.3450
vn 0.0519 0.8968 -0.4395
vn 0.7675 0.5922 0.2453
vn 0.6302 0.4377 0.6413
vn 0.3033 0.3951 0.8671
vn -0.6377 0.6104 -0.4699
vn -0.1631 0.9729 0.1637
vn -0.3014 0.9245 0.2335
vn -0.2633 0.9499 -0.1685
vn -0.4765 0.8459 0.2393
vt 1.000000 1.000000
vt 1.000000 0.000000
vt 0.000000 0.000000
vt 0.000000 1.000000
s 0
usemtl gbushy.001
f 1/1/1 2/2/1 3/3/1
f 1/1/1 3/3/1 4/4/1
f 5/1/2 6/2/2 7/3/2
f 5/1/2 7/3/2 8/4/2
f 9/1/3 10/2/3 11/3/3
f 9/1/3 11/3/3 12/4/3
f 13/1/4 14/2/4 15/3/4
f 13/1/4 15/3/4 16/4/4
f 17/1/5 18/2/5 19/3/5
f 17/1/5 19/3/5 20/4/5
f 21/1/6 22/2/6 23/3/6
f 21/1/6 23/3/6 24/4/6
f 25/1/7 26/2/7 27/3/7
f 25/1/7 27/3/7 28/4/7
f 29/1/8 30/2/8 31/3/8
f 29/1/8 31/3/8 32/4/8
f 33/1/9 34/2/9 35/3/9
f 33/1/9 35/3/9 36/4/9
f 37/1/10 38/2/10 39/3/10
f 37/1/10 39/3/10 40/4/10
f 41/1/11 42/2/11 43/3/11
f 41/1/11 43/3/11 44/4/11
f 45/1/12 46/2/12 47/3/12
f 45/1/12 47/3/12 48/4/12
f 49/1/13 50/2/13 51/3/13
f 49/1/13 51/3/13 52/4/13
f 53/1/14 54/2/14 55/3/14
f 53/1/14 55/3/14 56/4/14
s 1
f 57/1/15 58/2/15 59/3/15
s 0
f 57/1/15 59/3/15 60/4/15
f 61/1/16 62/2/16 63/3/16
s 1
f 61/1/16 63/3/16 64/4/16
s 0
f 65/1/17 66/2/17 67/3/17
f 65/1/17 67/3/17 68/4/17
f 69/1/18 70/2/18 71/3/18
f 69/1/18 71/3/18 72/4/18
f 73/1/19 74/2/19 75/3/19
f 73/1/19 75/3/19 76/4/19
f 77/1/20 78/2/20 79/3/20
f 77/1/20 79/3/20 80/4/20
f 81/1/21 82/2/21 83/3/21
f 81/1/21 83/3/21 84/4/21
f 85/1/22 86/2/22 87/3/22
f 85/1/22 87/3/22 88/4/22
f 89/1/23 90/2/23 91/3/23
f 89/1/23 91/3/23 92/4/23
f 93/1/24 94/2/24 95/3/24
f 93/1/24 95/3/24 96/4/24
f 97/1/25 98/2/25 99/3/25
f 97/1/25 99/3/25 100/4/25
f 101/1/26 102/2/26 103/3/26
f 101/1/26 103/3/26 104/4/26
f 105/1/27 106/2/27 107/3/27
f 105/1/27 107/3/27 108/4/27
f 109/1/28 110/2/28 111/3/28
f 109/1/28 111/3/28 112/4/28
f 113/1/29 114/2/29 115/3/29
f 113/1/29 115/3/29 116/4/29
f 117/1/30 118/2/30 119/3/30
f 117/1/30 119/3/30 120/4/30
f 121/1/31 122/2/31 123/3/31
f 121/1/31 123/3/31 124/4/31
f 125/1/32 126/2/32 127/3/32
f 125/1/32 127/3/32 128/4/32
f 129/1/33 130/2/33 131/3/33
f 129/1/33 131/3/33 132/4/33
f 133/1/34 134/2/34 135/3/34
f 133/1/34 135/3/34 136/4/34
f 137/1/35 138/2/35 139/3/35
f 137/1/35 139/3/35 140/4/35
f 141/1/36 142/2/36 143/3/36
f 141/1/36 143/3/36 144/4/36
f 145/1/37 146/2/37 147/3/37
f 145/1/37 147/3/37 148/4/37
f 149/1/38 150/2/38 151/3/38
f 149/1/38 151/3/38 152/4/38
f 153/1/39 154/2/39 155/3/39
f 153/1/39 155/3/39 156/4/39
f 157/1/40 158/2/40 159/3/40
f 157/1/40 159/3/40 160/4/40
f 161/1/41 162/2/41 163/3/41
f 161/1/41 163/3/41 164/4/41
f 165/1/42 166/2/42 167/3/42
f 165/1/42 167/3/42 168/4/42
f 169/1/43 170/2/43 171/3/43
f 169/1/43 171/3/43 172/4/43
f 173/1/44 174/2/44 175/3/44
f 173/1/44 175/3/44 176/4/44
f 177/1/45 178/2/45 179/3/45
f 177/1/45 179/3/45 180/4/45
f 181/1/46 182/2/46 183/3/46
f 181/1/46 183/3/46 184/4/46
f 185/1/47 186/2/47 187/3/47
f 185/1/47 187/3/47 188/4/47
f 189/1/48 190/2/48 191/3/48
f 189/1/48 191/3/48 192/4/48
f 193/1/49 194/2/49 195/3/49
f 193/1/49 195/3/49 196/4/49
f 197/1/50 198/2/50 199/3/50
f 197/1/50 199/3/50 200/4/50
f 201/1/51 202/2/51 203/3/51
f 201/1/51 203/3/51 204/4/51
f 205/1/52 206/2/52 207/3/52
f 205/1/52 207/3/52 208/4/52
f 209/1/53 210/2/53 211/3/53
f 209/1/53 211/3/53 212/4/53
f 213/1/54 214/2/54 215/3/54
f 213/1/54 215/3/54 216/4/54
f 217/1/55 218/2/55 219/3/55
f 217/1/55 219/3/55 220/4/55
f 221/1/56 222/2/56 223/3/56
f 221/1/56 223/3/56 224/4/56
f 225/1/57 226/2/57 227/3/57
f 225/1/57 227/3/57 228/4/57
f 229/1/58 230/2/58 231/3/58
f 229/1/58 231/3/58 232/4/58
f 233/1/59 234/2/59 235/3/59
f 233/1/59 235/3/59 236/4/59
f 237/1/60 238/2/60 239/3/60
f 237/1/60 239/3/60 240/4/60
f 241/1/61 242/2/61 243/3/61
f 241/1/61 243/3/61 244/4/61
f 245/1/62 246/2/62 247/3/62
f 245/1/62 247/3/62 248/4/62
f 249/1/63 250/2/63 251/3/63
f 249/1/63 251/3/63 252/4/63
f 253/1/64 254/2/64 255/3/64
f 253/1/64 255/3/64 256/4/64
f 257/1/65 258/2/65 259/3/65
f 257/1/65 259/3/65 260/4/65
f 261/1/66 262/2/66 263/3/66
f 261/1/66 263/3/66 264/4/66
f 265/1/67 266/2/67 267/3/67
f 265/1/67 267/3/67 268/4/67
f 269/1/68 270/2/68 271/3/68
f 269/1/68 271/3/68 272/4/68
f 273/1/69 274/2/69 275/3/69
f 273/1/69 275/3/69 276/4/69
f 277/1/70 278/2/70 279/3/70
f 277/1/70 279/3/70 280/4/70
f 281/1/71 282/2/71 283/3/71
f 281/1/71 283/3/71 284/4/71
f 285/1/72 286/2/72 287/3/72
f 285/1/72 287/3/72 288/4/72
f 289/1/73 290/2/73 291/3/73
s 1
f 289/1/73 291/3/73 292/4/73
s 0
f 293/1/74 294/2/74 295/3/74
f 293/1/74 295/3/74 296/4/74
f 297/1/75 298/2/75 299/3/75
f 297/1/75 299/3/75 300/4/75
f 301/1/76 302/2/76 303/3/76
f 301/1/76 303/3/76 304/4/76
f 305/1/77 306/2/77 307/3/77
f 305/1/77 307/3/77 308/4/77
f 309/1/78 310/2/78 311/3/78
f 309/1/78 311/3/78 312/4/78
f 313/1/79 314/2/79 315/3/79
f 313/1/79 315/3/79 316/4/79
f 317/1/80 318/2/80 319/3/80
f 317/1/80 319/3/80 320/4/80
f 321/1/81 322/2/81 323/3/81
f 321/1/81 323/3/81 324/4/81
f 325/1/82 326/2/82 327/3/82
f 325/1/82 327/3/82 328/4/82
f 329/1/83 330/2/83 331/3/83
f 329/1/83 331/3/83 332/4/83
s 1
f 333/1/84 334/2/84 335/3/84
s 0
f 333/1/84 335/3/84 336/4/84
f 337/1/85 338/2/85 339/3/85
f 337/1/85 339/3/85 340/4/85
f 341/1/86 342/2/86 343/3/86
f 341/1/86 343/3/86 344/4/86
f 345/1/87 346/2/87 347/3/87
f 345/1/87 347/3/87 348/4/87
f 349/1/88 350/2/88 351/3/88
f 349/1/88 351/3/88 352/4/88
f 353/1/89 354/2/89 355/3/89
f 353/1/89 355/3/89 356/4/89
f 357/1/90 358/2/90 359/3/90
f 357/1/90 359/3/90 360/4/90
f 361/1/91 362/2/91 363/3/91
f 361/1/91 363/3/91 364/4/91
f 365/1/92 366/2/92 367/3/92
f 365/1/92 367/3/92 368/4/92
f 369/1/93 370/2/93 371/3/93
f 369/1/93 371/3/93 372/4/93
f 373/1/94 374/2/94 375/3/94
f 373/1/94 375/3/94 376/4/94
f 377/1/95 378/2/95 379/3/95
f 377/1/95 379/3/95 380/4/95
f 381/1/96 382/2/96 383/3/96
f 381/1/96 383/3/96 384/4/96
f 385/1/97 386/2/97 387/3/97
f 385/1/97 387/3/97 388/4/97
f 389/1/98 390/2/98 391/3/98
f 389/1/98 391/3/98 392/4/98
f 393/1/99 394/2/99 395/3/99
f 393/1/99 395/3/99 396/4/99
f 397/1/100 398/2/100 399/3/100
f 397/1/100 399/3/100 400/4/100
f 401/1/101 402/2/101 403/3/101
f 401/1/101 403/3/101 404/4/101
f 405/1/102 406/2/102 407/3/102
f 405/1/102 407/3/102 408/4/102
f 409/1/103 410/2/103 411/3/103
f 409/1/103 411/3/103 412/4/103
f 413/1/104 414/2/104 415/3/104
f 413/1/104 415/3/104 416/4/104
f 417/1/105 418/2/105 419/3/105
f 417/1/105 419/3/105 420/4/105
f 421/1/106 422/2/106 423/3/106
f 421/1/106 423/3/106 424/4/106
f 425/1/107 426/2/107 427/3/107
f 425/1/107 427/3/107 428/4/107
f 429/1/108 430/2/108 431/3/108
f 429/1/108 431/3/108 432/4/108
f 433/1/109 434/2/109 435/3/109
f 433/1/109 435/3/109 436/4/109
f 437/1/110 438/2/110 439/3/110
f 437/1/110 439/3/110 440/4/110
f 441/1/111 442/2/111 443/3/111
f 441/1/111 443/3/111 444/4/111
f 445/1/112 446/2/112 447/3/112
f 445/1/112 447/3/112 448/4/112
f 449/1/113 450/2/113 451/3/113
f 449/1/113 451/3/113 452/4/113
f 453/1/114 454/2/114 455/3/114
f 453/1/114 455/3/114 456/4/114
f 457/1/115 458/2/115 459/3/115
f 457/1/115 459/3/115 460/4/115
f 461/1/116 462/2/116 463/3/116
f 461/1/116 463/3/116 464/4/116
f 465/1/117 466/2/117 467/3/117
f 465/1/117 467/3/117 468/4/117
f 469/1/118 470/2/118 471/3/118
f 469/1/118 471/3/118 472/4/118
f 473/1/119 474/2/119 475/3/119
f 473/1/119 475/3/119 476/4/119
f 477/1/120 478/2/120 479/3/120
f 477/1/120 479/3/120 480/4/120
f 481/1/121 482/2/121 483/3/121
f 481/1/121 483/3/121 484/4/121
f 485/1/122 486/2/122 487/3/122
f 485/1/122 487/3/122 488/4/122
f 489/1/123 490/2/123 491/3/123
f 489/1/123 491/3/123 492/4/123
f 493/1/124 494/2/124 495/3/124
f 493/1/124 495/3/124 496/4/124
f 497/1/125 498/2/125 499/3/125
f 497/1/125 499/3/125 500/4/125
f 501/1/126 502/2/126 503/3/126
f 501/1/126 503/3/126 504/4/126
f 505/1/127 506/2/127 507/3/127
f 505/1/127 507/3/127 508/4/127
f 509/1/128 510/2/128 511/3/128
f 509/1/128 511/3/128 512/4/128
f 513/1/129 514/2/129 515/3/129
f 513/1/129 515/3/129 516/4/129
f 517/1/130 518/2/130 519/3/130
f 517/1/130 519/3/130 520/4/130
f 521/1/131 522/2/131 523/3/131
f 521/1/131 523/3/131 524/4/131
f 525/1/132 526/2/132 527/3/132
f 525/1/132 527/3/132 528/4/132
f 529/1/133 530/2/133 531/3/133
f 529/1/133 531/3/133 532/4/133
f 533/1/134 534/2/134 535/3/134
f 533/1/134 535/3/134 536/4/134
f 537/1/135 538/2/135 539/3/135
f 537/1/135 539/3/135 540/4/135
f 541/1/136 542/2/136 543/3/136
f 541/1/136 543/3/136 544/4/136
f 545/1/137 546/2/137 547/3/137
f 545/1/137 547/3/137 548/4/137
f 549/1/138 550/2/138 551/3/138
f 549/1/138 551/3/138 552/4/138
f 553/1/139 554/2/139 555/3/139
f 553/1/139 555/3/139 556/4/139
f 557/1/140 558/2/140 559/3/140
s 1
f 557/1/140 559/3/140 560/4/140
s 0
f 561/1/141 562/2/141 563/3/141
f 561/1/141 563/3/141 564/4/141
f 565/1/142 566/2/142 567/3/142
f 565/1/142 567/3/142 568/4/142
f 569/1/143 570/2/143 571/3/143
f 569/1/143 571/3/143 572/4/143
f 573/1/144 574/2/144 575/3/144
f 573/1/144 575/3/144 576/4/144
f 577/1/145 578/2/145 579/3/145
f 577/1/145 579/3/145 580/4/145
f 581/1/146 582/2/146 583/3/146
f 581/1/146 583/3/146 584/4/146
f 585/1/147 586/2/147 587/3/147
f 585/1/147 587/3/147 588/4/147
f 589/1/148 590/2/148 591/3/148
f 589/1/148 591/3/148 592/4/148
f 593/1/149 594/2/149 595/3/149
f 593/1/149 595/3/149 596/4/149
f 597/1/150 598/2/150 599/3/150
f 597/1/150 599/3/150 600/4/150
s 1
f 601/1/151 602/2/151 603/3/151
s 0
f 601/1/151 603/3/151 604/4/151
f 605/1/152 606/2/152 607/3/152
f 605/1/152 607/3/152 608/4/152
f 609/1/153 610/2/153 611/3/153
f 609/1/153 611/3/153 612/4/153
f 613/1/154 614/2/154 615/3/154
f 613/1/154 615/3/154 616/4/154
f 617/1/155 618/2/155 619/3/155
f 617/1/155 619/3/155 620/4/155
f 621/1/156 622/2/156 623/3/156
f 621/1/156 623/3/156 624/4/156
f 625/1/157 626/2/157 627/3/157
f 625/1/157 627/3/157 628/4/157
f 629/1/158 630/2/158 631/3/158
f 629/1/158 631/3/158 632/4/158
f 633/1/159 634/2/159 635/3/159
f 633/1/159 635/3/159 636/4/159
f 637/1/160 638/2/160 639/3/160
f 637/1/160 639/3/160 640/4/160
f 641/1/161 642/2/161 643/3/161
f 641/1/161 643/3/161 644/4/161
f 645/1/162 646/2/162 647/3/162
f 645/1/162 647/3/162 648/4/162
f 649/1/163 650/2/163 651/3/163
f 649/1/163 651/3/163 652/4/163
f 653/1/164 654/2/164 655/3/164
f 653/1/164 655/3/164 656/4/164
f 657/1/165 658/2/165 659/3/165
f 657/1/165 659/3/165 660/4/165
f 661/1/166 662/2/166 663/3/166
f 661/1/166 663/3/166 664/4/166
f 665/1/167 666/2/167 667/3/167
f 665/1/167 667/3/167 668/4/167
